<svg width="200" height="80" viewBox="0 0 200 80" fill="none" xmlns="http://www.w3.org/2000/svg">
<g filter="url(#filter0_b_1131_2881)">
<rect width="200" height="80" rx="4" fill="white" fill-opacity="0.1"/>
</g>
<path d="M65.7484 34.449H71.1734C72.341 34.449 73.2032 34.7328 73.796 35.2116C74.4427 35.7437 74.7661 36.453 74.7661 37.3397C74.7661 38.4393 74.1912 39.1487 73.1853 39.5211V39.5743C74.4068 39.9467 75.1972 40.9753 75.1972 42.2876C75.1972 43.4049 74.784 44.2207 74.0475 44.7704C73.3829 45.2847 72.4667 45.5685 71.2811 45.5685H65.7484V34.449ZM70.7602 38.8472C71.5686 38.8472 72.1075 38.457 72.1075 37.7299C72.1075 37.0383 71.5865 36.6304 70.7782 36.6304H68.4968V38.8472H70.7602ZM70.9937 43.3517C71.9099 43.3517 72.4667 42.8374 72.4667 42.0394C72.4667 41.1526 71.8021 40.7093 70.9578 40.7093H68.4968V43.3517H70.9937ZM76.275 34.449H78.8438V36.5062H76.275V34.449ZM76.275 37.6058H78.8438V45.5508H76.275V37.6058ZM80.73 43.4581V39.1841H79.6522V37.6058H80.73V35.0875H83.2269V37.6058H84.682V39.1841H83.2269V42.9083C83.2269 43.529 83.5682 43.6887 84.1251 43.6887C84.3407 43.6887 84.9874 43.6709 85.0772 43.6709V45.5153C84.8616 45.5862 83.9814 45.6394 83.2988 45.6394C81.8078 45.6394 80.73 45.1606 80.73 43.4581ZM87.125 36.7722H84.2509V34.449H92.8375V36.7722H89.9094V45.5508H87.125V36.7722ZM91.1129 41.596C91.1129 39.2019 92.8375 37.3929 95.4242 37.3929C98.011 37.3929 99.7175 39.2019 99.7175 41.596C99.7175 43.9901 98.011 45.799 95.4242 45.799C92.8375 45.799 91.1129 43.9901 91.1129 41.596ZM97.1128 41.596C97.1128 40.1595 96.52 39.1664 95.4062 39.1664C94.2925 39.1664 93.6997 40.1418 93.6997 41.596C93.6997 43.0502 94.2745 44.0079 95.4062 44.0079C96.52 43.9901 97.1128 43.0325 97.1128 41.596ZM100.616 37.6058H103.077V38.8472H103.131C103.705 37.9072 104.406 37.5171 105.143 37.4816C105.376 37.4639 105.538 37.4994 105.646 37.5526V39.7339H105.574C104.226 39.5565 103.184 40.2837 103.184 42.0039V45.5685H100.616V37.6058ZM106.4 37.6058H108.861V38.8472H108.915C109.49 37.9072 110.19 37.5171 110.927 37.4816C111.16 37.4639 111.322 37.4994 111.43 37.5526V39.7339H111.358C110.011 39.5565 108.969 40.2837 108.969 42.0039V45.5685H106.4V37.6058ZM111.502 41.5605C111.502 39.1841 113.19 37.3752 115.633 37.3752C116.783 37.3752 117.699 37.7476 118.382 38.3683C119.334 39.2373 119.819 40.6206 119.801 42.2344C119.783 42.2344 114.017 42.2344 114.017 42.2344C114.178 43.2985 114.771 43.9724 115.831 43.9724C116.513 43.9724 116.945 43.6709 117.16 43.1744H119.657C119.477 43.8837 119.01 44.5754 118.31 45.0542C117.627 45.5153 116.819 45.7813 115.795 45.7813C113.136 45.7813 111.502 43.9724 111.502 41.5605ZM117.196 40.727C117.106 39.7871 116.496 39.1664 115.669 39.1664C114.699 39.1664 114.196 39.7694 114.017 40.727H117.196ZM120.681 37.6058H123.142V38.6876H123.196C123.789 37.8363 124.561 37.3752 125.675 37.3752C127.435 37.3752 128.477 38.6166 128.477 40.3901V45.5685H125.926V40.8866C125.926 40.0531 125.495 39.4679 124.669 39.4679C123.825 39.4679 123.25 40.1595 123.25 41.1526V45.5508H120.681V37.6058ZM130.058 43.4581V39.1841H128.98V37.6058H130.058V35.0875H132.555V37.6058H134.01V39.1841H132.555V42.9083C132.555 43.529 132.896 43.6887 133.453 43.6887C133.669 43.6887 134.315 43.6709 134.405 43.6709V45.5153C134.19 45.5862 133.309 45.6394 132.627 45.6394C131.118 45.6394 130.058 45.1606 130.058 43.4581ZM60 28.6499V51.3499H140.118V28.6499H60ZM137.962 49.2218H62.1556V30.778H137.962V49.2218Z" fill="white"/>
<defs>
<filter id="filter0_b_1131_2881" x="-50" y="-50" width="300" height="180" filterUnits="userSpaceOnUse" color-interpolation-filters="sRGB">
<feFlood flood-opacity="0" result="BackgroundImageFix"/>
<feGaussianBlur in="BackgroundImageFix" stdDeviation="25"/>
<feComposite in2="SourceAlpha" operator="in" result="effect1_backgroundBlur_1131_2881"/>
<feBlend mode="normal" in="SourceGraphic" in2="effect1_backgroundBlur_1131_2881" result="shape"/>
</filter>
</defs>
</svg>
