<svg width="18" height="18" viewBox="0 0 18 18" fill="none" xmlns="http://www.w3.org/2000/svg">
<path fill-rule="evenodd" clip-rule="evenodd" d="M4.2 2.69934V2.7H1V13.9H3.88L2.6 17.1H4.2L5.48 13.9H12.52L13.8 17.1H15.4L14.12 13.9H17V2.7H13.8V2.69934H12.2V2.7H5.8V2.69934H4.2ZM2.3342 3.99354H15.5949V12.5269H2.3342V3.99354Z" fill="white"/>
<path d="M6.02906 10.1733C6.19684 10.1733 6.36463 10.1103 6.49046 9.9845L8.07741 8.39756L9.16799 9.48815C9.41966 9.73982 9.83213 9.73982 10.0908 9.48815L12.1391 7.4398C12.265 7.31397 12.3279 7.15318 12.3279 6.9784C12.3279 6.80363 12.258 6.64284 12.1391 6.517C12.0133 6.39117 11.8525 6.32825 11.6777 6.32825C11.503 6.32825 11.3422 6.39816 11.2163 6.517L9.63638 8.10394L8.53881 7.01336C8.28713 6.76168 7.87467 6.76168 7.616 7.01336L5.56766 9.0617C5.31599 9.31337 5.31599 9.72584 5.56766 9.9845C5.70049 10.1103 5.86128 10.1733 6.02906 10.1733Z" fill="url(#paint0_linear_794_696)"/>
<defs>
<linearGradient id="paint0_linear_794_696" x1="5.22448" y1="10.1732" x2="12.4321" y2="10.1813" gradientUnits="userSpaceOnUse">
<stop stop-color="#81F7FA"/>
<stop offset="1" stop-color="#7AFF91"/>
</linearGradient>
</defs>
</svg>
