<svg width="200" height="80" viewBox="0 0 200 80" fill="none" xmlns="http://www.w3.org/2000/svg">
<rect width="200" height="80" rx="4" fill="white" fill-opacity="0.1"/>
<path d="M51.7606 24.3992V35.9783L61.5212 40.3519L51.7606 24.3992Z" fill="#AFD8D6" stroke="#424AA7" stroke-width="0.398947" stroke-linejoin="round"/>
<path d="M51.7606 24.3992L42 40.3519L51.7606 35.9783V24.3992Z" fill="#CBB4AC" stroke="#424AA7" stroke-width="0.398947" stroke-linejoin="round"/>
<path d="M51.7606 47.8543V55.7222L61.5269 42.1732L51.7606 47.8543Z" fill="#AC9FD1" stroke="#424AA7" stroke-width="0.398947" stroke-linejoin="round"/>
<path d="M51.7606 55.7222V47.8543L42 42.1732L51.7606 55.7222Z" fill="#CBB4AC" stroke="#424AA7" stroke-width="0.398947" stroke-linejoin="round"/>
<path d="M51.7606 46.0329L61.5212 40.3518L51.7606 35.9783V46.0329Z" fill="#AC9FD1" stroke="#424AA7" stroke-width="0.398947" stroke-linejoin="round"/>
<path d="M42 40.3518L51.7606 46.0329V35.9783L42 40.3518Z" fill="#8096CD" stroke="#424AA7" stroke-width="0.398947" stroke-linejoin="round"/>
<path d="M75.8671 37.5688C77.1209 37.5688 78.1176 38.0511 78.9856 39.0477C79.725 39.9157 80.2394 41.041 80.2394 42.2948C80.2394 42.552 79.9822 42.6484 79.7572 42.6484H72.2985C72.4271 43.6451 72.7807 44.5131 73.5523 45.124C74.1632 45.8634 74.9026 46.2492 75.8992 46.2492C77.1531 46.2492 78.1497 45.7669 78.8891 44.6417L79.2428 44.5131C79.5 44.5131 79.6286 44.5131 79.6286 44.8989V45.0275C78.8891 46.2813 77.6353 47.0208 75.8992 47.0208C74.6454 47.0208 73.6488 46.5385 72.7807 45.6705C71.977 44.7382 71.5269 43.5486 71.5269 42.327C71.5269 41.0731 71.9127 39.98 72.7807 39.0798C73.6166 38.0511 74.6133 37.5688 75.8671 37.5688ZM72.1377 41.909H79.2106C79.2106 40.9124 78.7284 40.0443 78.0854 39.4335C77.4746 38.6941 76.6065 38.3083 75.6099 38.3083C74.6133 38.3083 74.0024 38.6941 73.263 39.4335C72.62 40.0443 72.2663 40.9124 72.1377 41.909ZM85.7692 37.7939H87.7624C88.0196 37.7939 88.1482 37.7939 88.1482 38.1797C88.1482 38.4369 88.0196 38.5655 87.7624 38.5655H85.7692V46.5064C85.7692 46.7636 85.6406 46.8922 85.3834 46.8922C85.1262 46.8922 85.0297 46.8922 85.0297 46.5064V38.5655H83.0686C82.8114 38.5655 82.6828 38.4369 82.6828 38.1797C82.6828 37.9225 82.8114 37.7939 83.0686 37.7939H85.0619V34.8361C85.0619 34.5789 85.0619 34.4503 85.4155 34.4503C85.6727 34.4503 85.8013 34.5789 85.8013 34.8361V37.7939H85.7692ZM95.0925 37.5688C96.2178 37.5688 97.0858 38.0511 97.568 38.8227C98.3075 39.6907 98.5647 40.5587 98.5647 41.684V46.5064C98.5647 46.7636 98.5647 46.8922 98.1789 46.8922C97.9217 46.8922 97.7931 46.7636 97.7931 46.5064V41.5554C97.7931 40.8159 97.5359 40.0765 97.1822 39.4335C96.7 38.6941 95.9284 38.4369 95.0604 38.4369C94.0637 38.4369 93.1957 38.8226 92.5849 39.6907C92.0062 40.623 91.7811 41.7161 91.974 42.8092V46.5385C91.974 46.7957 91.974 46.9243 91.5882 46.9243C91.331 46.9243 91.2346 46.7957 91.2346 46.5385V30.6567C91.2346 30.3995 91.3632 30.2709 91.5882 30.2709C91.8454 30.2709 91.974 30.2709 91.974 30.6567V39.5942C92.7456 38.3083 93.7101 37.5688 95.0925 37.5688ZM106.248 37.5688C107.502 37.5688 108.499 38.0511 109.367 39.0477C110.171 39.9479 110.589 41.1053 110.621 42.2948C110.621 42.552 110.492 42.6484 110.235 42.6484H102.776C102.776 43.6451 103.258 44.5131 103.901 45.124C104.512 45.8634 105.38 46.3778 106.377 46.3778C107.631 46.3778 108.627 45.7669 109.367 44.6417L109.753 44.5131C110.01 44.5131 110.106 44.5131 110.106 44.8989V45.0275C109.238 46.2813 107.984 47.0208 106.377 47.0208C105.123 47.0208 104.03 46.5385 103.259 45.6705C102.39 44.6739 102.005 43.5486 102.005 42.327C102.005 41.1053 102.39 39.98 103.259 39.0798C104.03 38.0511 105.027 37.5688 106.248 37.5688ZM102.776 41.909H109.849C109.721 40.9124 109.367 40.0443 108.595 39.4335C107.984 38.6941 107.245 38.3083 106.248 38.3083C105.252 38.3083 104.512 38.6941 103.773 39.4335C103.291 40.0443 102.905 40.9124 102.776 41.909ZM118.047 37.7939C118.304 37.7939 118.433 37.7939 118.433 38.1797C118.433 38.3083 118.433 38.5655 118.047 38.5655C117.051 38.694 116.183 39.1763 115.572 40.0443C115.186 40.7838 114.961 41.6518 114.961 42.777V46.5064C114.961 46.635 114.832 46.7636 114.575 46.7636C114.318 46.7636 114.221 46.7636 114.221 46.3778V38.1797C114.221 37.9225 114.221 37.7939 114.575 37.7939C114.832 37.7939 114.961 37.7939 114.961 38.1797V39.7871C115.218 39.3049 115.7 38.7905 116.215 38.4047C116.826 37.9225 117.436 37.7939 118.047 37.7939ZM124.992 37.5688C126.245 37.5688 127.242 38.0511 128.11 39.0477C128.978 39.9157 129.364 41.041 129.364 42.2948C129.364 42.552 129.235 42.6484 129.01 42.6484H121.552C121.552 43.6451 122.034 44.5131 122.677 45.124C123.288 45.8634 124.156 46.3778 125.152 46.3778C126.406 46.3778 127.403 45.7669 128.142 44.6417L128.399 44.5131C128.657 44.5131 128.753 44.5131 128.753 44.8989V45.0275C128.014 46.2813 126.76 47.0208 125.024 47.0208C123.77 47.0208 122.805 46.5385 122.034 45.6705C121.23 44.7382 120.78 43.5486 120.78 42.327C120.78 41.0731 121.166 39.98 122.034 39.0798C122.773 38.0511 123.77 37.5688 124.992 37.5688ZM121.519 41.909H128.592C128.464 40.9124 128.11 40.0443 127.339 39.4335C126.728 38.6941 125.988 38.3083 124.992 38.3083C124.124 38.3083 123.256 38.6941 122.516 39.4335C122.034 40.0443 121.648 40.9124 121.519 41.909ZM139.652 37.7939C139.909 37.7939 140.005 37.9225 140.005 38.1797V46.5064C140.005 46.7636 140.005 46.8922 139.652 46.8922C139.395 46.8922 139.266 46.8922 139.266 46.5064V44.8989C138.655 46.3778 137.53 47.1172 136.147 47.1172C135.151 47.1172 134.283 46.635 133.672 45.8634C133.061 44.9954 132.804 44.1273 132.804 43.0021V38.1475C132.804 37.8903 132.804 37.7617 133.158 37.7617C133.415 37.7617 133.543 37.8903 133.543 38.1475V43.0985C133.543 43.838 133.672 44.5774 134.154 45.2204C134.636 45.9598 135.408 46.217 136.147 46.217C138.269 46.217 139.266 44.6096 139.266 41.266V38.1475C139.266 37.9225 139.395 37.7939 139.652 37.7939ZM154.183 37.5688C155.18 37.5688 156.048 38.0511 156.659 38.8227C157.27 39.5621 157.527 40.5587 157.527 41.5554V46.5064C157.527 46.7636 157.527 46.8922 157.141 46.8922C156.884 46.8922 156.755 46.7636 156.755 46.5064V41.5554C156.755 40.6873 156.627 39.9479 156.144 39.4335C155.662 38.6941 154.891 38.4369 154.151 38.4369C153.026 38.4369 152.287 38.8226 151.676 39.8193C151.322 40.6873 151.065 41.5554 151.065 42.6806V46.4099C151.065 46.7957 150.936 46.8922 150.711 46.8922C150.454 46.8922 150.325 46.7636 150.325 46.5064V41.5554C150.325 40.6873 150.068 39.9479 149.586 39.4335C149.104 38.6941 148.332 38.4369 147.593 38.4369C146.467 38.4369 145.728 38.8226 145.117 39.6907C144.635 40.3015 144.506 41.2982 144.506 42.6806V46.4099C144.506 46.7957 144.378 46.8922 144.121 46.8922C143.863 46.8922 143.735 46.7636 143.735 46.5064V38.1797C143.735 37.9225 143.735 37.7939 144.121 37.7939C144.378 37.7939 144.506 37.7939 144.506 38.1797V39.4335C145.246 38.1797 146.242 37.5688 147.625 37.5688C149.232 37.5688 150.229 38.4369 150.84 40.0443C151.451 38.4369 152.544 37.5688 154.183 37.5688Z" fill="white"/>
</svg>
