<svg width="200" height="80" viewBox="0 0 200 80" fill="none" xmlns="http://www.w3.org/2000/svg">
<g opacity="0.4">
<g filter="url(#filter0_b_102_442)">
<rect width="200" height="80" fill="#071619"/>
</g>
<path d="M91.3571 29.8931V36.5637H84.6419V30.7544C84.6419 30.2762 84.2482 29.8904 83.7664 29.8904H81.4922V45.8563C81.4922 46.3345 81.8859 46.7203 82.3677 46.7203H84.6419V39.2727H91.3598V45.8536C91.3543 46.3318 91.7398 46.7258 92.2216 46.7312H94.5095V30.7544C94.5095 30.2762 94.1158 29.8904 93.634 29.8904H91.3571V29.8931ZM104.691 34.0666V42.0686C104.697 42.7968 104.311 43.4734 103.675 43.8483C101.896 44.8618 100.052 43.5902 100.052 41.9219V34.9307C100.052 34.4525 99.6581 34.0666 99.1763 34.0666H96.9021V42.2099C96.9076 44.8346 99.0606 46.9567 101.72 46.9703H103.012C105.674 46.9649 107.832 44.8346 107.838 42.2072V34.9307C107.838 34.4525 107.444 34.0666 106.962 34.0666H104.691Z" fill="white"/>
<path d="M139.083 46.7312H141.357V35.3953C141.357 34.9171 140.963 34.5312 140.481 34.5312H138.207V45.8617C138.204 46.3399 138.593 46.7285 139.077 46.7339H139.083V46.7312Z" fill="white"/>
<path d="M141.394 32.2569C141.763 31.3784 141.34 30.3713 140.45 30.0074C139.56 29.6435 138.539 30.0606 138.171 30.9391C137.802 31.8176 138.225 32.8248 139.115 33.1887C140.005 33.5525 141.025 33.1354 141.394 32.2569Z" fill="white"/>
<path d="M115.966 34.0586C112.668 34.0586 109.97 36.3845 109.97 39.6396V41.3976C109.97 44.6527 112.668 46.965 115.966 46.965C119.265 46.965 121.963 44.6527 121.963 41.3976V39.6396C121.966 36.3872 119.267 34.0586 115.966 34.0586ZM118.799 41.6095C118.799 43.1474 117.525 44.1745 115.961 44.1745C114.397 44.1745 113.125 43.1501 113.125 41.6095V39.4141C113.125 37.8762 114.4 36.8491 115.961 36.8491C117.522 36.8491 118.799 37.8735 118.799 39.4141V41.6095Z" fill="white"/>
<path d="M130.087 34.0585C129.099 34.0531 128.124 34.2732 127.235 34.6971V30.7708C127.235 30.2926 126.841 29.9067 126.359 29.9067H124.085V41.4002C124.085 44.6554 126.783 46.9676 130.082 46.9676C133.38 46.9676 136.078 44.6554 136.078 41.4002V39.6422C136.084 36.3871 133.394 34.0585 130.087 34.0585ZM132.926 41.6094C132.926 43.1473 131.651 44.1744 130.087 44.1744C128.529 44.1744 127.251 43.1501 127.251 41.6094V39.414C127.251 37.8761 128.526 36.849 130.087 36.849C131.648 36.849 132.926 37.8734 132.926 39.414V41.6094Z" fill="white"/>
<path d="M67.682 31.2734C67.682 27.8797 66.008 24.9588 64.7333 24.0105C64.7333 24.0105 64.6342 23.9562 64.6452 24.0947C64.5405 30.6485 61.1458 32.4228 59.2818 34.8138C54.9785 40.3351 58.9762 46.3888 63.0565 47.5056C65.3307 48.1332 62.5279 46.397 62.1672 42.7343C61.724 38.3162 67.682 34.9388 67.682 31.2734Z" fill="white"/>
<path d="M69.6363 33.5041C69.6088 33.4878 69.573 33.4743 69.5482 33.5177C69.4767 34.341 68.6259 36.1044 67.5411 37.7266C63.8738 43.2234 65.9635 45.8726 67.1392 47.2991C67.822 48.1223 67.1392 47.2991 68.8434 46.454C70.9496 45.1933 72.318 43.0087 72.519 40.585C72.8576 36.6805 70.4816 34.2188 69.6363 33.5041Z" fill="white"/>
</g>
<defs>
<filter id="filter0_b_102_442" x="-50" y="-50" width="300" height="180" filterUnits="userSpaceOnUse" color-interpolation-filters="sRGB">
<feFlood flood-opacity="0" result="BackgroundImageFix"/>
<feGaussianBlur in="BackgroundImageFix" stdDeviation="25"/>
<feComposite in2="SourceAlpha" operator="in" result="effect1_backgroundBlur_102_442"/>
<feBlend mode="normal" in="SourceGraphic" in2="effect1_backgroundBlur_102_442" result="shape"/>
</filter>
</defs>
</svg>
