<svg width="200" height="80" viewBox="0 0 200 80" fill="none" xmlns="http://www.w3.org/2000/svg">
<g filter="url(#filter0_b_1131_2900)">
<rect width="200" height="80" rx="4" fill="white" fill-opacity="0.1"/>
</g>
<path d="M51.9375 45.7168L68.8012 37.6436L68.8932 41.0273L51.9375 49.1742V45.7168Z" fill="#23B49A"/>
<path d="M55.5052 44.0068L60.8935 46.6182L57.3514 48.3285L51.9375 45.7355L55.5052 44.0068Z" fill="#2CCDB0"/>
<path d="M60.8939 50.0568L60.8939 46.6178L57.3517 48.3281L57.3262 51.7854L60.8939 50.0568Z" fill="#46EFD1"/>
<path d="M48.4805 44.0617L65.3258 35.9517L68.8015 37.6436L51.9378 45.7352L48.4805 44.0617Z" fill="#2CCDB0"/>
<path d="M48.4805 44.0434L57.3445 48.2915V51.7488L48.4805 47.5007V44.0434Z" fill="#177867"/>
<path d="M43 35.6939L51.864 39.9421V43.3994L43 39.1513V35.6939Z" fill="#131766"/>
<path d="M59.0723 37.4778L61.6469 38.6548L61.6837 31.9056L59.0723 30.6919V37.4778Z" fill="#1B1F6D"/>
<path d="M51.8633 39.9422L68.727 31.8689L68.819 35.2527L51.8633 43.3995V39.9422Z" fill="#262C96"/>
<path d="M48.4062 38.2873L65.2516 30.1772L68.7273 31.8691L51.8636 39.9608L48.4062 38.2873Z" fill="#4950D4"/>
<path d="M46.6045 34.0021L51.956 36.5767L48.4139 38.287L43 35.694L46.6045 34.0021Z" fill="#4950D4"/>
<path d="M62.6767 29L65.2513 30.177L61.6837 31.9056L59.0723 30.6919L62.6767 29Z" fill="#4950D4"/>
<path d="M79.9472 42.9764V35.0319H76.5266V33.4136H81.6759V43.2155C81.6759 44.1227 81.3878 44.8522 80.8115 45.4039C80.4192 45.7717 79.9779 46.0108 79.4874 46.1211C78.997 46.2315 78.3963 46.2867 77.6852 46.2867H74.375V44.6683H77.9243C79.2729 44.6683 79.9472 44.1044 79.9472 42.9764Z" fill="white"/>
<path d="M91.2905 46.2867H88.109C86.7481 46.2867 85.7734 46.0844 85.1849 45.6798C84.6578 45.3242 84.3206 44.9013 84.1735 44.4109C84.0386 43.9082 83.9712 43.2523 83.9712 42.4431V37.4594H85.5895V42.4247C85.5895 42.6454 85.5956 42.8354 85.6079 42.9948C85.6202 43.1419 85.6631 43.3381 85.7366 43.5833C85.8102 43.8162 85.9144 44.0124 86.0493 44.1718C86.1841 44.3189 86.3803 44.4538 86.6378 44.5764C86.8952 44.6867 87.2078 44.7419 87.5756 44.7419H89.6721V37.4594H91.2905V46.2867Z" fill="white"/>
<path d="M99.7212 37.4594V39.0042H96.4661C96.1106 39.0042 95.8041 39.0716 95.5466 39.2065C95.2891 39.3413 95.1604 39.5314 95.1604 39.7766C95.1604 39.9237 95.1911 40.0585 95.2524 40.1811C95.3137 40.2915 95.3811 40.3834 95.4547 40.457C95.5405 40.5305 95.6631 40.6102 95.8225 40.6961C95.9941 40.7696 96.1228 40.8248 96.2087 40.8616C96.3067 40.8861 96.6991 41.0087 97.3856 41.2294C98.0722 41.4501 98.581 41.634 98.912 41.7811C99.243 41.9282 99.4944 42.1305 99.666 42.3879C99.8499 42.6331 99.9664 42.8784 100.015 43.1236C100.064 43.3565 100.089 43.5894 100.089 43.8224C100.089 45.4652 98.961 46.2867 96.7052 46.2867H93.5237V44.7419H96.7052C97.8576 44.7419 98.4339 44.4354 98.4339 43.8224C98.4339 43.5281 98.2622 43.2829 97.9189 43.0868C97.5879 42.8906 97.1772 42.7251 96.6868 42.5902C96.2087 42.4554 95.7244 42.3021 95.234 42.1305C94.7558 41.9466 94.3451 41.6585 94.0018 41.2662C93.6708 40.8616 93.5053 40.365 93.5053 39.7766C93.5053 39.0287 93.7934 38.4586 94.3696 38.0663C94.9459 37.6617 95.6447 37.4594 96.4661 37.4594H99.7212Z" fill="white"/>
<path d="M102.647 39.0042V35.7123H104.303V37.4594H106.785V39.0042H104.303V42.7925C104.303 43.2216 104.37 43.5772 104.505 43.8592C104.652 44.1411 104.86 44.3434 105.13 44.466C105.4 44.5764 105.651 44.6499 105.884 44.6867C106.129 44.7235 106.43 44.7419 106.785 44.7419V46.2867C105.375 46.2867 104.333 46.0169 103.659 45.4775C102.985 44.938 102.647 44.0431 102.647 42.7925V39.0042Z" fill="white"/>
<path d="M115.84 44.6683V46.2867H113.155C112.652 46.2867 112.254 46.2805 111.96 46.2683C111.678 46.2437 111.322 46.1702 110.893 46.0476C110.464 45.9127 110.102 45.7166 109.808 45.4591C109.355 45.0423 109.06 44.5457 108.925 43.9695C108.791 43.381 108.723 42.6944 108.723 41.9098V33.4136H110.452V41.873C110.452 42.5841 110.531 43.1419 110.691 43.5465C111.01 44.2944 111.678 44.6683 112.695 44.6683H115.84Z" fill="white"/>
<path d="M121.733 37.2755C123.817 37.3613 124.859 38.2257 124.859 39.8685C124.859 41.9159 123.517 42.9397 120.832 42.9397H120.078V41.5236H120.96C121.782 41.5236 122.352 41.401 122.671 41.1558C122.989 40.8983 123.149 40.4754 123.149 39.8869C123.149 39.5068 123.008 39.2248 122.726 39.0409C122.444 38.8448 122.082 38.7467 121.641 38.7467C120.77 38.7467 120.084 39.0532 119.581 39.6662C119.091 40.2792 118.845 41.0148 118.845 41.873C118.845 42.7803 119.109 43.5159 119.636 44.0798C120.176 44.6438 120.874 44.9258 121.733 44.9258C122.505 44.9258 123.136 44.7358 123.627 44.3557L124.73 45.4407C123.884 46.1273 122.885 46.4706 121.733 46.4706C120.335 46.4706 119.219 46.0598 118.386 45.2384C117.552 44.417 117.135 43.3565 117.135 42.0569C117.135 40.6102 117.546 39.4394 118.367 38.5444C119.189 37.6494 120.311 37.2265 121.733 37.2755Z" fill="white"/>
<path d="M126.788 37.4594H129.969C131.33 37.4594 132.305 37.6617 132.893 38.0663C133.421 38.4218 133.752 38.8509 133.886 39.3536C134.034 39.844 134.107 40.4938 134.107 41.3029V46.2867H132.489V41.3213C132.489 41.1006 132.483 40.9167 132.47 40.7696C132.458 40.6102 132.415 40.4141 132.342 40.1811C132.268 39.9359 132.164 39.7398 132.029 39.5927C131.894 39.4333 131.698 39.2984 131.441 39.1881C131.183 39.0655 130.87 39.0042 130.503 39.0042H128.406V46.2867H126.788V37.4594Z" fill="white"/>
<path d="M143.218 33.4136H144.873V46.2867H140.552C139.215 46.2867 138.13 45.8637 137.297 45.0177C136.463 44.1595 136.046 43.0806 136.046 41.7811C136.046 40.506 136.475 39.4394 137.333 38.5812C138.204 37.7107 139.234 37.2755 140.423 37.2755C141.183 37.2755 141.894 37.4594 142.556 37.8272V39.4823C141.943 39.0409 141.232 38.8203 140.423 38.8203C139.687 38.8203 139.062 39.0961 138.547 39.6478C138.044 40.1873 137.793 40.8983 137.793 41.7811C137.793 42.6761 138.032 43.3933 138.51 43.9327C139.001 44.4722 139.681 44.7419 140.552 44.7419H143.218V33.4136Z" fill="white"/>
</svg>
