<svg width="200" height="80" viewBox="0 0 200 80" fill="none" xmlns="http://www.w3.org/2000/svg">
<g opacity="0.4">
<g filter="url(#filter0_b_1131_2606)">
<rect width="200" height="80" fill="#071619"/>
</g>
<path d="M100.407 32.6833H103.23V42.1019C103.23 42.9725 103.034 43.7288 102.643 44.3708C102.256 45.0127 101.717 45.5074 101.027 45.8548C100.337 46.2022 99.5341 46.3758 98.6196 46.3758C97.8061 46.3758 97.0674 46.2329 96.4034 45.9471C95.7439 45.6569 95.2206 45.2172 94.8337 44.628C94.4467 44.0344 94.2554 43.2891 94.2598 42.3921H97.1026C97.1114 42.7482 97.1839 43.0538 97.3202 43.3089C97.4609 43.5595 97.6522 43.753 97.894 43.8893C98.1403 44.0212 98.4305 44.0872 98.7647 44.0872C99.1164 44.0872 99.4132 44.0124 99.6551 43.8629C99.9013 43.709 100.088 43.4848 100.216 43.1901C100.343 42.8955 100.407 42.5328 100.407 42.1019V32.6833Z" fill="white"/>
<path d="M113.935 32.6833H116.791V41.4555C116.791 42.4404 116.555 43.3023 116.085 44.041C115.619 44.7797 114.966 45.3557 114.126 45.769C113.286 46.178 112.308 46.3824 111.191 46.3824C110.07 46.3824 109.089 46.178 108.249 45.769C107.409 45.3557 106.756 44.7797 106.29 44.041C105.824 43.3023 105.591 42.4404 105.591 41.4555V32.6833H108.447V41.2115C108.447 41.7259 108.559 42.1832 108.783 42.5834C109.012 42.9835 109.333 43.2979 109.746 43.5265C110.16 43.7552 110.641 43.8695 111.191 43.8695C111.745 43.8695 112.226 43.7552 112.635 43.5265C113.049 43.2979 113.367 42.9835 113.592 42.5834C113.82 42.1832 113.935 41.7259 113.935 41.2115V32.6833Z" fill="white"/>
<path d="M126.468 36.5681C126.415 36.0361 126.189 35.6228 125.789 35.3282C125.388 35.0335 124.845 34.8862 124.159 34.8862C123.693 34.8862 123.3 34.9522 122.979 35.0841C122.658 35.2116 122.412 35.3897 122.24 35.6184C122.073 35.847 121.99 36.1064 121.99 36.3966C121.981 36.6385 122.031 36.8495 122.141 37.0298C122.256 37.2101 122.412 37.3662 122.61 37.4981C122.807 37.6256 123.036 37.7378 123.295 37.8345C123.555 37.9268 123.832 38.006 124.127 38.0719L125.34 38.3621C125.929 38.4941 126.47 38.6699 126.963 38.8898C127.455 39.1096 127.882 39.3801 128.242 39.7011C128.603 40.022 128.882 40.4002 129.08 40.8355C129.282 41.2708 129.385 41.7699 129.39 42.3327C129.385 43.1594 129.174 43.8761 128.757 44.4829C128.343 45.0853 127.745 45.5536 126.963 45.8878C126.184 46.2175 125.246 46.3824 124.146 46.3824C123.056 46.3824 122.106 46.2153 121.297 45.8812C120.492 45.547 119.864 45.0523 119.411 44.3971C118.962 43.7376 118.727 42.9219 118.705 41.9502H121.468C121.499 42.4031 121.629 42.7812 121.858 43.0846C122.091 43.3836 122.401 43.6101 122.788 43.764C123.179 43.9135 123.621 43.9882 124.113 43.9882C124.597 43.9882 125.017 43.9179 125.373 43.7772C125.734 43.6365 126.013 43.4408 126.211 43.1901C126.409 42.9395 126.508 42.6515 126.508 42.3261C126.508 42.0227 126.417 41.7677 126.237 41.561C126.061 41.3544 125.802 41.1785 125.459 41.0334C125.12 40.8883 124.705 40.7564 124.212 40.6376L122.741 40.2683C121.603 39.9913 120.703 39.5582 120.044 38.9689C119.384 38.3797 119.057 37.5861 119.061 36.5879C119.057 35.7701 119.274 35.0555 119.714 34.4443C120.158 33.8331 120.767 33.3561 121.541 33.0131C122.315 32.6701 123.194 32.4986 124.179 32.4986C125.182 32.4986 126.057 32.6701 126.804 33.0131C127.556 33.3561 128.141 33.8331 128.559 34.4443C128.977 35.0555 129.192 35.7635 129.205 36.5681H126.468Z" fill="white"/>
<path d="M130.796 35.0379V32.6833H141.89V35.0379H137.755V46.1912H134.932V35.0379H130.796Z" fill="white"/>
<g filter="url(#filter1_d_1131_2606)">
<rect x="59" y="28.3917" width="23.2166" height="23.2166" fill="white" fill-opacity="0.2"/>
</g>
<mask id="mask0_1131_2606" style="mask-type:luminance" maskUnits="userSpaceOnUse" x="63" y="32" width="15" height="16">
<path fill-rule="evenodd" clip-rule="evenodd" d="M63.6445 47.4764H77.5943V32.2608H63.6445V47.4764Z" fill="white"/>
</mask>
<g mask="url(#mask0_1131_2606)">
<path fill-rule="evenodd" clip-rule="evenodd" d="M72.3065 33.9433C72.3065 34.8725 71.5624 35.6257 70.6444 35.6257C69.7265 35.6257 68.9824 34.8725 68.9824 33.9433C68.9824 33.014 69.7265 32.2608 70.6444 32.2608C71.5624 32.2608 72.3065 33.014 72.3065 33.9433Z" fill="white"/>
<path fill-rule="evenodd" clip-rule="evenodd" d="M72.3065 45.7938C72.3065 46.7236 71.5624 47.4763 70.6444 47.4763C69.7265 47.4763 68.9824 46.7236 68.9824 45.7938C68.9824 44.8646 69.7265 44.1114 70.6444 44.1114C71.5624 44.1114 72.3065 44.8646 72.3065 45.7938Z" fill="white"/>
<path d="M64.707 32.2605C64.707 35.5669 67.3561 38.2473 70.6238 38.2473V38.2473C73.8916 38.2473 76.5406 35.5669 76.5406 32.2605" stroke="white" stroke-width="2.81876"/>
<path fill-rule="evenodd" clip-rule="evenodd" d="M63.7051 42.9167H77.5331V40.6054H63.7051V42.9167Z" fill="white"/>
</g>
</g>
<defs>
<filter id="filter0_b_1131_2606" x="-50" y="-50" width="300" height="180" filterUnits="userSpaceOnUse" color-interpolation-filters="sRGB">
<feFlood flood-opacity="0" result="BackgroundImageFix"/>
<feGaussianBlur in="BackgroundImageFix" stdDeviation="25"/>
<feComposite in2="SourceAlpha" operator="in" result="effect1_backgroundBlur_1131_2606"/>
<feBlend mode="normal" in="SourceGraphic" in2="effect1_backgroundBlur_1131_2606" result="shape"/>
</filter>
<filter id="filter1_d_1131_2606" x="53" y="25.3917" width="35.2168" height="35.2166" filterUnits="userSpaceOnUse" color-interpolation-filters="sRGB">
<feFlood flood-opacity="0" result="BackgroundImageFix"/>
<feColorMatrix in="SourceAlpha" type="matrix" values="0 0 0 0 0 0 0 0 0 0 0 0 0 0 0 0 0 0 127 0" result="hardAlpha"/>
<feOffset dy="3"/>
<feGaussianBlur stdDeviation="3"/>
<feColorMatrix type="matrix" values="0 0 0 0 0 0 0 0 0 0 0 0 0 0 0 0 0 0 0.080283 0"/>
<feBlend mode="normal" in2="BackgroundImageFix" result="effect1_dropShadow_1131_2606"/>
<feBlend mode="normal" in="SourceGraphic" in2="effect1_dropShadow_1131_2606" result="shape"/>
</filter>
</defs>
</svg>
