<svg width="20" height="20" viewBox="0 0 20 20" fill="none" xmlns="http://www.w3.org/2000/svg">
<path opacity="0.8" d="M18.0599 6.95996V15.215C18.0599 15.5922 17.9101 15.954 17.6434 16.2207C17.3767 16.4874 17.0149 16.6373 16.6377 16.6373H3.36361C2.98642 16.6373 2.62467 16.4874 2.35796 16.2207C2.09124 15.954 1.94141 15.5922 1.94141 15.215V6.95996L3.36361 8.16555V15.215H16.6377V8.16553L18.0599 6.95996Z" fill="white"/>
<path fill-rule="evenodd" clip-rule="evenodd" d="M16.6377 3.36279C16.811 3.363 16.9828 3.39449 17.1449 3.45574C17.378 3.5445 17.5834 3.69333 17.7404 3.88713C17.8254 3.99136 17.8953 4.10707 17.948 4.23084C18.0111 4.38035 18.048 4.53959 18.0571 4.7016L18.0599 4.78502V5.2591L10.9237 11.3462C10.6781 11.5557 10.3685 11.6754 10.0459 11.6857C9.72324 11.6959 9.40671 11.5961 9.1483 11.4026L9.07764 11.3457L1.94141 5.2591V4.78502C1.94083 4.52178 2.01357 4.26357 2.15147 4.03934C2.28938 3.81511 2.487 3.63371 2.72219 3.51547C2.92105 3.41494 3.14078 3.36263 3.3636 3.36279H16.6377ZM9.99988 10.2641L16.4236 4.78516H3.57617L9.99988 10.2641Z" fill="url(#paint0_linear_756_973)"/>
<defs>
<linearGradient id="paint0_linear_756_973" x1="1.58322" y1="11.6863" x2="18.3017" y2="11.7065" gradientUnits="userSpaceOnUse">
<stop stop-color="#81F7FA"/>
<stop offset="1" stop-color="#7AFF91"/>
</linearGradient>
</defs>
</svg>
