<svg width="24" height="24" viewBox="0 0 24 24" fill="none" xmlns="http://www.w3.org/2000/svg">
<g clip-path="url(#clip0_653_1386)">
<path d="M13.025 12C13.025 14.651 11.0046 16.8 8.51256 16.8C6.02049 16.8 4 14.6505 4 12C4 9.34959 6.02033 7.19995 8.51256 7.19995C11.0048 7.19995 13.025 9.3491 13.025 12ZM17.9752 12C17.9752 14.4953 16.9651 16.5189 15.7189 16.5189C14.4728 16.5189 13.4627 14.4953 13.4627 12C13.4627 9.50475 14.4727 7.48113 15.7188 7.48113C16.9649 7.48113 17.9751 9.50411 17.9751 12M20 12C20 14.2352 19.6448 16.0483 19.2065 16.0483C18.7681 16.0483 18.4131 14.2357 18.4131 12C18.4131 9.76439 18.7683 7.95181 19.2065 7.95181C19.6446 7.95181 20 9.76423 20 12Z" fill="white"/>
</g>
<defs>
<clipPath id="clip0_653_1386">
<rect width="16" height="9.6" fill="white" transform="translate(4 7.19995)"/>
</clipPath>
</defs>
</svg>
