<svg width="200" height="80" viewBox="0 0 200 80" fill="none" xmlns="http://www.w3.org/2000/svg">
<g opacity="0.4">
<g filter="url(#filter0_b_102_1010)">
<rect width="200" height="80" fill="#071619"/>
</g>
<g clip-path="url(#clip0_102_1010)">
<path d="M153.393 39.6142C152.665 39.1396 151.872 38.796 151.119 38.3706C150.628 38.1006 150.104 37.8551 149.679 37.5033C148.959 36.9142 149.106 35.7442 149.859 35.237C150.947 34.517 152.739 34.9179 152.935 36.3906C152.935 36.4233 152.968 36.4479 153.001 36.4479H154.637C154.678 36.4479 154.711 36.4151 154.694 36.366C154.68 35.9028 154.566 35.4481 154.36 35.033C154.153 34.6179 153.86 34.2521 153.5 33.9606C152.834 33.4471 152.017 33.1681 151.176 33.167C146.856 33.167 146.455 37.7406 148.787 39.1806C149.057 39.3442 151.34 40.4896 152.142 40.9887C152.96 41.4878 153.205 42.4042 152.862 43.116C152.534 43.7787 151.716 44.2369 150.882 44.1796C149.982 44.1305 149.278 43.6396 149.033 42.8787C148.992 42.7396 148.967 42.4696 148.967 42.3632C148.965 42.3465 148.958 42.3309 148.946 42.3189C148.934 42.307 148.918 42.2996 148.902 42.2978H147.126C147.102 42.2978 147.069 42.3305 147.069 42.3632C147.069 43.6396 147.388 44.3514 148.255 44.9978C149.074 45.6114 149.974 45.8732 150.89 45.8732C153.32 45.8732 154.572 44.4987 154.817 43.0832C155.046 41.6923 154.637 40.4405 153.393 39.6142ZM76.3216 33.4043H74.6689C74.6567 33.4058 74.6451 33.4103 74.6351 33.4174C74.6251 33.4246 74.617 33.4341 74.6117 33.4452L73.1553 38.2397C73.1553 38.257 73.1484 38.2737 73.1361 38.2859C73.1239 38.2982 73.1072 38.3051 73.0899 38.3051C73.0725 38.3051 73.0559 38.2982 73.0436 38.2859C73.0313 38.2737 73.0244 38.257 73.0244 38.2397L71.5681 33.4452C71.5599 33.4124 71.5353 33.4043 71.5026 33.4043H68.7945C68.7617 33.4043 68.729 33.437 68.729 33.4615V45.7014C68.729 45.7341 68.7617 45.7668 68.7945 45.7668H70.5699C70.6026 45.7668 70.6353 45.7341 70.6353 45.7014V36.3906C70.6353 36.317 70.7417 36.3088 70.7581 36.3742L72.2308 41.2014L72.3371 41.5287C72.3371 41.5696 72.3617 41.5778 72.3944 41.5778H73.7608C73.7935 41.5778 73.8099 41.5533 73.818 41.5369L73.9244 41.1933L75.3971 36.366C75.4135 36.3006 75.5198 36.317 75.5198 36.3906V45.6932C75.5198 45.7259 75.5526 45.7587 75.5853 45.7587H77.3607C77.3934 45.7587 77.4262 45.7259 77.4262 45.6932V33.4615C77.4262 33.437 77.3934 33.4043 77.3607 33.4043H76.3216ZM126.214 33.4043C126.2 33.4044 126.187 33.4082 126.175 33.4155C126.164 33.4227 126.154 33.433 126.148 33.4452L124.692 38.2397C124.692 38.257 124.685 38.2737 124.673 38.2859C124.661 38.2982 124.644 38.3051 124.627 38.3051C124.609 38.3051 124.593 38.2982 124.58 38.2859C124.568 38.2737 124.561 38.257 124.561 38.2397L123.105 33.4452C123.105 33.4124 123.08 33.4043 123.047 33.4043H120.347C120.315 33.4043 120.282 33.437 120.282 33.4615V45.7014C120.282 45.7341 120.315 45.7668 120.347 45.7668H122.123C122.147 45.7668 122.18 45.7341 122.18 45.7014V36.3906C122.18 36.317 122.287 36.3088 122.311 36.3742L123.784 41.2014L123.882 41.5287C123.898 41.5696 123.915 41.5778 123.947 41.5778H125.306C125.319 41.5769 125.332 41.5727 125.343 41.5656C125.355 41.5584 125.364 41.5486 125.371 41.5369L125.477 41.1933L126.95 36.366C126.967 36.3006 127.073 36.317 127.073 36.3906V45.6932C127.073 45.7259 127.106 45.7587 127.138 45.7587H128.914C128.946 45.7587 128.979 45.7259 128.979 45.6932V33.4615C128.979 33.437 128.946 33.4043 128.914 33.4043H126.214ZM103.313 33.4043H94.9269C94.9023 33.4043 94.8696 33.437 94.8696 33.4615V34.9997C94.8696 35.0324 94.9023 35.0652 94.9269 35.0652H98.175V45.7014C98.175 45.7423 98.2077 45.775 98.2323 45.775H100.008C100.04 45.775 100.073 45.7423 100.073 45.7096V35.057H103.313C103.346 35.057 103.379 35.0242 103.379 34.9915V33.4615C103.379 33.437 103.362 33.4043 103.313 33.4043ZM113.786 45.7668H115.406C115.447 45.7668 115.479 45.7178 115.463 45.685L112.125 33.4043C112.125 33.3715 112.1 33.3552 112.068 33.3552H109.736C109.723 33.3574 109.71 33.3632 109.7 33.3718C109.69 33.3805 109.683 33.3917 109.679 33.4043L106.34 45.6768C106.324 45.7178 106.357 45.7587 106.398 45.7587H108.018C108.05 45.7587 108.067 45.7423 108.083 45.7178L109.049 42.1505C109.057 42.1178 109.081 42.1096 109.114 42.1096H112.681C112.714 42.1096 112.738 42.126 112.747 42.1505L113.712 45.7178C113.728 45.7423 113.761 45.7668 113.778 45.7668H113.786ZM109.548 40.3587L110.84 35.5724C110.84 35.5551 110.847 35.5384 110.859 35.5261C110.872 35.5139 110.888 35.507 110.906 35.507C110.923 35.507 110.94 35.5139 110.952 35.5261C110.964 35.5384 110.971 35.5551 110.971 35.5724L112.264 40.3587C112.28 40.3996 112.248 40.4405 112.207 40.4405H109.613C109.564 40.4405 109.531 40.3996 109.548 40.3587ZM141.334 45.7668H142.954C142.994 45.7668 143.027 45.7178 143.019 45.685L139.681 33.3961C139.665 33.3634 139.648 33.347 139.615 33.347H137.3C137.285 33.3478 137.271 33.3529 137.26 33.3616C137.248 33.3703 137.239 33.3823 137.235 33.3961L133.896 45.6687C133.888 45.7096 133.921 45.7505 133.962 45.7505H135.574C135.606 45.7505 135.631 45.7341 135.639 45.7096L136.605 42.1423C136.621 42.1096 136.637 42.1014 136.67 42.1014H140.245C140.27 42.1014 140.295 42.1178 140.303 42.1423L141.276 45.7096C141.276 45.7341 141.309 45.7587 141.334 45.7587V45.7668ZM137.095 40.3587L138.396 35.5724C138.401 35.5599 138.409 35.5491 138.42 35.5415C138.431 35.5338 138.444 35.5297 138.458 35.5297C138.471 35.5297 138.484 35.5338 138.495 35.5415C138.506 35.5491 138.514 35.5599 138.519 35.5724L139.82 40.3587C139.82 40.3996 139.795 40.4405 139.755 40.4405H137.161C137.12 40.4405 137.079 40.3996 137.095 40.3587ZM84.6343 43.9505V40.1542C84.6343 40.1215 84.6588 40.0887 84.6915 40.0887H89.4206C89.4533 40.0887 89.486 40.056 89.486 40.0315V38.5015C89.4843 38.4847 89.4768 38.4691 89.4649 38.4572C89.453 38.4453 89.4373 38.4378 89.4206 38.436H84.6997C84.667 38.436 84.6425 38.4033 84.6425 38.3706V35.1306C84.6425 35.0979 84.667 35.0652 84.6997 35.0652H90.0833C90.116 35.0652 90.1488 35.0324 90.1488 34.9997V33.4779C90.147 33.4611 90.1395 33.4455 90.1276 33.4336C90.1157 33.4217 90.1 33.4142 90.0833 33.4124H82.8016C82.7848 33.4142 82.7692 33.4217 82.7573 33.4336C82.7454 33.4455 82.7379 33.4611 82.7361 33.4779V45.7014C82.7361 45.7341 82.7688 45.7668 82.8016 45.7668H90.3042C90.3369 45.7668 90.3697 45.7341 90.3697 45.7014V44.0814C90.3679 44.0647 90.3604 44.049 90.3485 44.0371C90.3366 44.0252 90.321 44.0177 90.3042 44.016H84.6915C84.6588 44.0078 84.6425 43.9832 84.6425 43.9423L84.6343 43.9505ZM169.61 45.6605L163.473 39.3278C163.464 39.3162 163.459 39.3018 163.459 39.2869C163.459 39.272 163.464 39.2576 163.473 39.246L168.996 33.5188C169.01 33.5123 169.021 33.5005 169.026 33.4859C169.032 33.4713 169.031 33.4552 169.025 33.4411C169.018 33.427 169.006 33.416 168.992 33.4107C168.977 33.4053 168.961 33.4059 168.947 33.4124H166.689C166.664 33.4124 166.656 33.4206 166.648 33.437L161.96 38.2888C161.951 38.2961 161.94 38.301 161.929 38.3028C161.917 38.3047 161.905 38.3035 161.895 38.2993C161.884 38.2952 161.874 38.2882 161.867 38.2792C161.86 38.2701 161.855 38.2593 161.853 38.2478V33.4779C161.852 33.4611 161.844 33.4455 161.832 33.4336C161.82 33.4217 161.805 33.4142 161.788 33.4124H160.012C159.996 33.4142 159.98 33.4217 159.968 33.4336C159.956 33.4455 159.949 33.4611 159.947 33.4779V45.7096C159.947 45.7423 159.98 45.775 160.012 45.775H161.788C161.821 45.775 161.853 45.7423 161.853 45.7096V40.326C161.853 40.2687 161.927 40.2442 161.96 40.2851L167.278 45.7505C167.286 45.7613 167.298 45.7697 167.311 45.775H169.577C169.618 45.7668 169.659 45.6932 169.61 45.6605Z" fill="white"/>
<path d="M56.6038 26.8184L45.853 34.771L47.8575 30.0829L56.6038 26.8184Z" fill="#E9E9E9" stroke="#E9E9E9" stroke-width="0.204543" stroke-linecap="round" stroke-linejoin="round"/>
<path d="M31.8135 26.8184L42.4661 34.8364L40.5598 30.091L31.8135 26.8184ZM52.7342 45.2518L49.8706 49.6208L55.9987 51.3063L57.7496 45.35L52.7342 45.2518ZM30.6763 45.35L32.419 51.3063L38.5307 49.6208L35.6835 45.2518L30.6763 45.35Z" fill="#E9E9E9" stroke="#E9E9E9" stroke-width="0.204543" stroke-linecap="round" stroke-linejoin="round"/>
<path d="M38.2038 37.8716L36.502 40.4407L42.5564 40.7189L42.3601 34.198L38.2038 37.8798V37.8716ZM50.2145 37.8798L45.9928 34.1162L45.8537 40.7189L51.9081 40.4407L50.2145 37.8798ZM38.531 49.6206L42.2046 47.8533L39.0465 45.3988L38.531 49.6206ZM46.2218 47.8451L49.8709 49.6206L49.38 45.3906L46.2218 47.8451Z" fill="#D1D1D1" stroke="white" stroke-width="0.204543" stroke-linecap="round" stroke-linejoin="round"/>
<path d="M49.8706 49.6208L46.2216 47.8535L46.5161 50.2262L46.4834 51.2326L49.8706 49.6208ZM38.5308 49.6208L41.9344 51.2326L41.9098 50.2262L42.2044 47.8535L38.5308 49.6208Z" fill="#FAFAFA" stroke="#FAFAFA" stroke-width="0.204543" stroke-linecap="round" stroke-linejoin="round"/>
<path d="M41.9921 43.8199L38.9648 42.9363L41.1085 41.9545L42.0003 43.8199H41.9921ZM46.4184 43.8199L47.3184 41.9463L49.4702 42.9281L46.4184 43.8281V43.8199Z" fill="#233447" stroke="#233447" stroke-width="0.204543" stroke-linecap="round" stroke-linejoin="round"/>
<path d="M38.5308 49.6208L39.0626 45.2518L35.6836 45.35L38.5308 49.6208ZM49.3553 45.2518L49.8707 49.6208L52.7343 45.35L49.3553 45.2518ZM51.9161 40.4409L45.8617 40.7191L46.418 43.8282L47.318 41.9464L49.4698 42.9282L51.9161 40.4409ZM38.9645 42.9363L41.1081 41.9545L41.9999 43.82L42.5644 40.7109L36.5099 40.4409L38.9645 42.9363Z" fill="#B4B4B4" stroke="#B4B4B4" stroke-width="0.204543" stroke-linecap="round" stroke-linejoin="round"/>
<path d="M36.5098 40.4409L39.0461 45.3909L38.9643 42.9363L36.5098 40.4409ZM49.4696 42.9363L49.3714 45.3909L51.9078 40.4409L49.4696 42.9363ZM42.5642 40.7191L41.9915 43.8282L42.7115 47.4936L42.8751 42.6582L42.5642 40.7191ZM45.8533 40.7191L45.5587 42.65L45.706 47.4936L46.4178 43.82L45.8533 40.7109V40.7191Z" fill="#D6D6D6" stroke="#D6D6D6" stroke-width="0.204543" stroke-linecap="round" stroke-linejoin="round"/>
<path d="M46.4178 43.8197L45.706 47.4933L46.2214 47.8532L49.3714 45.3987L49.4696 42.936L46.4178 43.8197ZM38.9642 42.936L39.0461 45.3906L42.2042 47.8451L42.7115 47.4933L41.9997 43.8197L38.9561 42.936H38.9642Z" fill="#E9E9E9" stroke="#E9E9E9" stroke-width="0.204543" stroke-linecap="round" stroke-linejoin="round"/>
<path d="M46.4916 51.2324L46.5161 50.2261L46.2379 49.997H42.1798L41.9098 50.2261L41.9344 51.2324L38.5308 49.6206L39.7253 50.6024L42.1389 52.2633H46.2707L48.6925 50.5942L49.8706 49.6206L46.4834 51.2324H46.4916Z" fill="#C4C4C4" stroke="#C3C3C3" stroke-width="0.204543" stroke-linecap="round" stroke-linejoin="round"/>
<path d="M46.2214 47.8455L45.706 47.4937H42.7115L42.2042 47.8536L41.9097 50.2263L42.1797 49.9973H46.2378L46.516 50.2263L46.2214 47.8536V47.8455Z" fill="#161616" stroke="#161616" stroke-width="0.204543" stroke-linecap="round" stroke-linejoin="round"/>
<path d="M57.062 35.2864L57.962 30.9092L56.6039 26.8184L46.2131 34.5092L50.2139 37.8719L55.8593 39.5164L57.1029 38.0682L56.563 37.6755L57.422 36.8901L56.7675 36.3828L57.6266 35.7283L57.0539 35.2864H57.062ZM30.4551 30.901L31.3714 35.2864L30.7823 35.7201L31.6578 36.3746L31.0033 36.8901L31.8542 37.6755L31.3142 38.0682L32.5578 39.5164L38.2032 37.88L42.204 34.501L31.8132 26.8184L30.4551 30.901Z" fill="#707070" stroke="#707070" stroke-width="0.204543" stroke-linecap="round" stroke-linejoin="round"/>
<path d="M55.8596 39.516L50.2142 37.8797L51.916 40.4406L49.3797 45.3905L52.7342 45.3496H57.7496L55.8596 39.516ZM38.2035 37.8715L32.5581 39.516L30.6763 45.3496H35.6917L39.0462 45.3905L36.5098 40.4406L38.2116 37.8715H38.2035ZM45.8534 40.7188L46.2215 34.5006L47.8579 30.0825H40.5598L42.1961 34.5006L42.5643 40.7188L42.7034 42.666V47.4932H45.7061L45.7225 42.666L45.8534 40.7188Z" fill="white" stroke="white" stroke-width="0.204543" stroke-linecap="round" stroke-linejoin="round"/>
</g>
</g>
<defs>
<filter id="filter0_b_102_1010" x="-50" y="-50" width="300" height="180" filterUnits="userSpaceOnUse" color-interpolation-filters="sRGB">
<feFlood flood-opacity="0" result="BackgroundImageFix"/>
<feGaussianBlur in="BackgroundImageFix" stdDeviation="25"/>
<feComposite in2="SourceAlpha" operator="in" result="effect1_backgroundBlur_102_1010"/>
<feBlend mode="normal" in="SourceGraphic" in2="effect1_backgroundBlur_102_1010" result="shape"/>
</filter>
<clipPath id="clip0_102_1010">
<rect width="140.726" height="26.9997" fill="white" transform="translate(29.6372 26)"/>
</clipPath>
</defs>
</svg>
