<svg width="18" height="18" viewBox="0 0 18 18" fill="none" xmlns="http://www.w3.org/2000/svg">
<path d="M15.451 7.97742C14.6947 7.55284 13.6344 7.32825 12.3845 7.32825C11.1346 7.32825 10.0743 7.55284 9.31881 7.97742C8.63868 8.35994 8.24902 8.89403 8.24902 9.4448V14.8834C8.24902 15.4341 8.63868 15.9682 9.31881 16.3508C10.0751 16.7753 11.1354 16.9991 12.3853 16.9991C13.6352 16.9991 14.6812 16.7777 15.4359 16.3595C16.0922 15.9952 16.4732 15.5095 16.5168 14.985H16.5224V9.4448C16.5216 8.89403 16.1311 8.35994 15.451 7.97742ZM12.3845 15.7675C10.4799 15.7675 9.47991 15.1104 9.47991 14.8834V13.7152C10.2227 14.085 11.2258 14.2802 12.3845 14.2802C13.5432 14.2802 14.5463 14.085 15.2899 13.7152V14.8834C15.2899 15.1104 14.2908 15.7675 12.3845 15.7675ZM12.3845 13.0486C10.4799 13.0486 9.47991 12.3915 9.47991 12.1637V10.9963C10.2227 11.3661 11.2258 11.5606 12.3845 11.5606C13.5432 11.5606 14.5471 11.3661 15.2899 10.9963V12.1645C15.2899 12.3915 14.2908 13.047 12.3845 13.047V13.0486ZM12.3845 10.3297C10.4799 10.3297 9.47991 9.67177 9.47991 9.4448C9.47991 9.21783 10.4783 8.55992 12.3845 8.55992C14.2908 8.55992 15.2899 9.21783 15.2899 9.4448C15.2899 9.67177 14.2908 10.3297 12.3845 10.3297Z" fill="url(#paint0_linear_794_678)"/>
<path d="M13.6705 6.91475V3.95063C13.6705 2.03407 10.5302 1 7.57244 1C4.61467 1 1.47754 2.03169 1.47754 3.95063V12.4121C1.47754 14.3286 4.61784 15.3627 7.57244 15.3627H7.6518V14.1326H7.57244C4.60435 14.1326 2.70922 13.1144 2.70922 12.4137V10.0138C3.82741 10.7058 5.67096 11.1328 7.57244 11.1328H7.6518V9.9011H7.57244C4.60435 9.9011 2.70922 8.8829 2.70922 8.18214V5.78228C3.83058 6.4743 5.67334 6.90047 7.57244 6.90047C9.47154 6.90047 11.3183 6.4743 12.4357 5.78228V6.82666C12.8488 6.82714 13.2615 6.85657 13.6705 6.91475ZM7.57244 5.66641C4.60435 5.66641 2.70922 4.64821 2.70922 3.94746C2.70922 3.2467 4.60753 2.23088 7.57244 2.23088C10.5374 2.23088 12.4357 3.24908 12.4357 3.95063C12.4357 4.65218 10.5445 5.66641 7.57244 5.66641Z" fill="white"/>
<defs>
<linearGradient id="paint0_linear_794_678" x1="8.06517" y1="16.9991" x2="16.6465" y2="17.0037" gradientUnits="userSpaceOnUse">
<stop stop-color="#81F7FA"/>
<stop offset="1" stop-color="#7AFF91"/>
</linearGradient>
</defs>
</svg>
