<svg width="24" height="20" viewBox="0 0 24 20" fill="none" xmlns="http://www.w3.org/2000/svg">
<path fill-rule="evenodd" clip-rule="evenodd" d="M19.2031 0.922814L19.2044 0.925042L23.2341 7.9178L23.2387 7.92568L23.2434 7.93343C23.2582 7.95763 23.2685 7.99518 23.2613 8.0434C23.2538 8.09301 23.2308 8.13252 23.2061 8.15557L23.1986 8.16257L23.1913 8.16979L12.1293 19.1133L12.1266 19.1159C12.0467 19.1959 11.9207 19.1959 11.8408 19.1159L11.8386 19.1137L0.798565 8.17247L0.797868 8.17177C0.736716 8.10992 0.710742 7.99109 0.768922 7.88504L5.06894 0.882717L5.07312 0.875909L5.07506 0.872582C5.07713 0.870392 5.08588 0.861564 5.10582 0.851027C5.13593 0.835123 5.17594 0.824123 5.2181 0.824123H19.0258C19.1071 0.824123 19.1702 0.865125 19.2031 0.922814ZM0.161187 7.52587C-0.0561021 7.90119 0.00315945 8.37527 0.299463 8.67157L11.3417 19.615C11.6973 19.9706 12.2701 19.9706 12.6257 19.615L23.6877 8.67157C23.984 8.39503 24.063 7.92094 23.8457 7.56537L19.816 0.572618C19.6579 0.296069 19.3616 0.118286 19.0258 0.118286H5.2181C4.90204 0.118286 4.60574 0.276315 4.46746 0.513357L0.161187 7.52587Z" fill="url(#paint0_linear_222_218)"/>
<mask id="path-2-outside-1_222_218" maskUnits="userSpaceOnUse" x="3.78809" y="5.69315" width="16" height="8" fill="black">
<rect fill="white" x="3.78809" y="5.69315" width="16" height="8"/>
<path fill-rule="evenodd" clip-rule="evenodd" d="M12.0639 6.69315V7.15779L11.9136 7.15782C10.1806 7.15817 8.61607 7.29789 7.48848 7.52189C6.92345 7.63413 6.47593 7.76604 6.17329 7.90814C6.02157 7.97938 5.91433 8.04949 5.84712 8.11472C5.78011 8.17975 5.76481 8.22761 5.76481 8.25887C5.76481 8.29013 5.78011 8.33799 5.84712 8.40302C5.91433 8.46825 6.02157 8.53836 6.17329 8.60959C6.47593 8.75169 6.92345 8.88361 7.48848 8.99585C8.61607 9.21984 10.1806 9.35957 11.9136 9.35991L11.9355 9.35992V9.35755L12.0859 9.35758C14.0199 9.35796 15.7752 9.5323 17.0509 9.81604C17.6875 9.95764 18.213 10.1282 18.5829 10.3227C18.7677 10.4199 18.9211 10.5268 19.0299 10.6451C19.1396 10.7642 19.2113 10.9034 19.2113 11.0594C19.2113 11.2155 19.1396 11.3546 19.0299 11.4738C18.9211 11.5921 18.7677 11.699 18.5829 11.7961C18.213 11.9906 17.6875 12.1612 17.0509 12.3028C15.7752 12.5865 14.0199 12.7609 12.0859 12.7613L11.9355 12.7613V12.2966L12.0859 12.2966C13.8189 12.2963 15.3834 12.1565 16.5109 11.9326C17.076 11.8203 17.5235 11.6884 17.8261 11.5463C17.9779 11.4751 18.0851 11.4049 18.1523 11.3397C18.2193 11.2747 18.2346 11.2268 18.2346 11.1956C18.2346 11.1643 18.2193 11.1164 18.1523 11.0514C18.0851 10.9862 17.9779 10.9161 17.8261 10.8448C17.5235 10.7027 17.076 10.5708 16.5109 10.4586C15.3834 10.2346 13.8189 10.0949 12.0859 10.0945L12.0639 10.0945V10.0969L11.9135 10.0969C9.9795 10.0965 8.22427 9.92214 6.94853 9.6384C6.31188 9.4968 5.78646 9.32619 5.41653 9.13171C5.23172 9.03455 5.07837 8.92766 4.96949 8.80935C4.85987 8.69023 4.78809 8.55106 4.78809 8.39502C4.78809 8.23898 4.85987 8.09981 4.96949 7.98069C5.07837 7.86238 5.23172 7.75549 5.41653 7.65833C5.78646 7.46385 6.31188 7.29324 6.94853 7.15164C8.22427 6.8679 9.9795 6.69356 11.9135 6.69318L12.0639 6.69315ZM11.7632 9.94613C9.16601 9.93342 6.91851 9.60552 5.76449 9.12774C6.94082 9.61465 9.25286 9.94586 11.9132 9.94638V9.51027H11.9135V9.94651C11.8633 9.9465 11.8132 9.94637 11.7632 9.94613ZM11.9132 6.84353L11.9135 6.84353V7.00747C8.43405 7.00816 5.61445 7.56816 5.61445 8.25887C5.61445 8.45243 5.83589 8.63573 6.23122 8.79933C5.8357 8.6357 5.61415 8.45235 5.61415 8.25874C5.61415 7.56804 8.43375 7.00803 11.9132 7.00734V6.84353ZM12.2363 9.50831C14.3181 9.5185 16.1754 9.73122 17.4248 10.0613C16.1454 9.72333 14.2287 9.50843 12.0862 9.50801V9.94417H12.0859V9.50793C12.1361 9.50794 12.1863 9.50807 12.2363 9.50831ZM12.0862 12.6109H12.0859V12.447C15.5654 12.4463 18.385 11.8863 18.385 11.1956C18.385 10.9489 18.0253 10.7188 17.4043 10.525C18.0254 10.7189 18.3853 10.9489 18.3853 11.1957C18.3853 11.8864 15.5657 12.4464 12.0862 12.4471V12.6109Z"/>
</mask>
<path fill-rule="evenodd" clip-rule="evenodd" d="M12.0639 6.69315V7.15779L11.9136 7.15782C10.1806 7.15817 8.61607 7.29789 7.48848 7.52189C6.92345 7.63413 6.47593 7.76604 6.17329 7.90814C6.02157 7.97938 5.91433 8.04949 5.84712 8.11472C5.78011 8.17975 5.76481 8.22761 5.76481 8.25887C5.76481 8.29013 5.78011 8.33799 5.84712 8.40302C5.91433 8.46825 6.02157 8.53836 6.17329 8.60959C6.47593 8.75169 6.92345 8.88361 7.48848 8.99585C8.61607 9.21984 10.1806 9.35957 11.9136 9.35991L11.9355 9.35992V9.35755L12.0859 9.35758C14.0199 9.35796 15.7752 9.5323 17.0509 9.81604C17.6875 9.95764 18.213 10.1282 18.5829 10.3227C18.7677 10.4199 18.9211 10.5268 19.0299 10.6451C19.1396 10.7642 19.2113 10.9034 19.2113 11.0594C19.2113 11.2155 19.1396 11.3546 19.0299 11.4738C18.9211 11.5921 18.7677 11.699 18.5829 11.7961C18.213 11.9906 17.6875 12.1612 17.0509 12.3028C15.7752 12.5865 14.0199 12.7609 12.0859 12.7613L11.9355 12.7613V12.2966L12.0859 12.2966C13.8189 12.2963 15.3834 12.1565 16.5109 11.9326C17.076 11.8203 17.5235 11.6884 17.8261 11.5463C17.9779 11.4751 18.0851 11.4049 18.1523 11.3397C18.2193 11.2747 18.2346 11.2268 18.2346 11.1956C18.2346 11.1643 18.2193 11.1164 18.1523 11.0514C18.0851 10.9862 17.9779 10.9161 17.8261 10.8448C17.5235 10.7027 17.076 10.5708 16.5109 10.4586C15.3834 10.2346 13.8189 10.0949 12.0859 10.0945L12.0639 10.0945V10.0969L11.9135 10.0969C9.9795 10.0965 8.22427 9.92214 6.94853 9.6384C6.31188 9.4968 5.78646 9.32619 5.41653 9.13171C5.23172 9.03455 5.07837 8.92766 4.96949 8.80935C4.85987 8.69023 4.78809 8.55106 4.78809 8.39502C4.78809 8.23898 4.85987 8.09981 4.96949 7.98069C5.07837 7.86238 5.23172 7.75549 5.41653 7.65833C5.78646 7.46385 6.31188 7.29324 6.94853 7.15164C8.22427 6.8679 9.9795 6.69356 11.9135 6.69318L12.0639 6.69315ZM11.7632 9.94613C9.16601 9.93342 6.91851 9.60552 5.76449 9.12774C6.94082 9.61465 9.25286 9.94586 11.9132 9.94638V9.51027H11.9135V9.94651C11.8633 9.9465 11.8132 9.94637 11.7632 9.94613ZM11.9132 6.84353L11.9135 6.84353V7.00747C8.43405 7.00816 5.61445 7.56816 5.61445 8.25887C5.61445 8.45243 5.83589 8.63573 6.23122 8.79933C5.8357 8.6357 5.61415 8.45235 5.61415 8.25874C5.61415 7.56804 8.43375 7.00803 11.9132 7.00734V6.84353ZM12.2363 9.50831C14.3181 9.5185 16.1754 9.73122 17.4248 10.0613C16.1454 9.72333 14.2287 9.50843 12.0862 9.50801V9.94417H12.0859V9.50793C12.1361 9.50794 12.1863 9.50807 12.2363 9.50831ZM12.0862 12.6109H12.0859V12.447C15.5654 12.4463 18.385 11.8863 18.385 11.1956C18.385 10.9489 18.0253 10.7188 17.4043 10.525C18.0254 10.7189 18.3853 10.9489 18.3853 11.1957C18.3853 11.8864 15.5657 12.4464 12.0862 12.4471V12.6109Z" fill="url(#paint1_linear_222_218)"/>
<path d="M12.0639 7.15779L12.0639 7.20982L12.1159 7.20981V7.15779H12.0639ZM12.0639 6.69315H12.1159V6.64111L12.0639 6.64112L12.0639 6.69315ZM11.9136 7.15782L11.9136 7.20985L11.9136 7.20985L11.9136 7.15782ZM7.48848 7.52189L7.49862 7.57291L7.49862 7.57291L7.48848 7.52189ZM6.17329 7.90814L6.1954 7.95523L6.1954 7.95523L6.17329 7.90814ZM5.84712 8.11472L5.81089 8.07738L5.81089 8.07738L5.84712 8.11472ZM5.84712 8.40302L5.81089 8.44035L5.81089 8.44035L5.84712 8.40302ZM6.17329 8.60959L6.15118 8.65668L6.15118 8.65668L6.17329 8.60959ZM7.48848 8.99585L7.47835 9.04688L7.47835 9.04688L7.48848 8.99585ZM11.9136 9.35991L11.9135 9.41194L11.9135 9.41194L11.9136 9.35991ZM11.9355 9.35992L11.9355 9.41194L11.9876 9.41195V9.35992H11.9355ZM11.9355 9.35755L11.9356 9.30552L11.8835 9.30551V9.35755H11.9355ZM12.0859 9.35758L12.0859 9.30555L12.0859 9.30555L12.0859 9.35758ZM17.0509 9.81604L17.0396 9.86682L17.0396 9.86682L17.0509 9.81604ZM18.5829 10.3227L18.5587 10.3688L18.5587 10.3688L18.5829 10.3227ZM19.0299 10.6451L19.0682 10.6099L19.0682 10.6099L19.0299 10.6451ZM19.0299 11.4738L19.0682 11.509L19.0682 11.509L19.0299 11.4738ZM18.5829 11.7961L18.5587 11.7501L18.5587 11.7501L18.5829 11.7961ZM17.0509 12.3028L17.0396 12.252L17.0396 12.252L17.0509 12.3028ZM12.0859 12.7613L12.0859 12.8133L12.0859 12.8133L12.0859 12.7613ZM11.9355 12.7613H11.8835V12.8133L11.9356 12.8133L11.9355 12.7613ZM11.9355 12.2966L11.9355 12.2446L11.8835 12.2446V12.2966H11.9355ZM12.0859 12.2966L12.0859 12.3486L12.0859 12.3486L12.0859 12.2966ZM16.5109 11.9326L16.5008 11.8815L16.5008 11.8815L16.5109 11.9326ZM17.8261 11.5463L17.804 11.4992L17.804 11.4992L17.8261 11.5463ZM18.1523 11.3397L18.1161 11.3024L18.1161 11.3024L18.1523 11.3397ZM18.1523 11.0514L18.1161 11.0888L18.1161 11.0888L18.1523 11.0514ZM17.8261 10.8448L17.8482 10.7978L17.8482 10.7978L17.8261 10.8448ZM16.5109 10.4586L16.5211 10.4076L16.5211 10.4076L16.5109 10.4586ZM12.0859 10.0945L12.0859 10.0425L12.0859 10.0425L12.0859 10.0945ZM12.0639 10.0945L12.0639 10.0425L12.0119 10.0425V10.0945H12.0639ZM12.0639 10.0969L12.0639 10.1489L12.1159 10.1489V10.0969H12.0639ZM11.9135 10.0969L11.9135 10.1489L11.9135 10.1489L11.9135 10.0969ZM6.94853 9.6384L6.95983 9.58762L6.95983 9.58762L6.94853 9.6384ZM5.41653 9.13171L5.39232 9.17776L5.39232 9.17776L5.41653 9.13171ZM4.96949 8.80935L4.93121 8.84458L4.93121 8.84458L4.96949 8.80935ZM4.96949 7.98069L5.00777 8.01592L5.00777 8.01592L4.96949 7.98069ZM5.41653 7.65833L5.44074 7.70438L5.44074 7.70438L5.41653 7.65833ZM6.94853 7.15164L6.95983 7.20242L6.95983 7.20242L6.94853 7.15164ZM11.9135 6.69318L11.9135 6.64115L11.9135 6.64115L11.9135 6.69318ZM5.76449 9.12774L5.78439 9.07967L5.74459 9.1758L5.76449 9.12774ZM11.7632 9.94613L11.7629 9.99815L11.7629 9.99815L11.7632 9.94613ZM11.9132 9.94638L11.9132 9.99841L11.9652 9.99842V9.94638H11.9132ZM11.9132 9.51027V9.45825H11.8612V9.51027H11.9132ZM11.9135 9.51027H11.9655V9.45825H11.9135V9.51027ZM11.9135 9.94651L11.9135 9.99853L11.9655 9.99854V9.94651H11.9135ZM11.9135 6.84353H11.9655V6.7915L11.9135 6.79151L11.9135 6.84353ZM11.9132 6.84353L11.9132 6.79151L11.8612 6.79152V6.84353H11.9132ZM11.9135 7.00747L11.9135 7.05949L11.9655 7.05948V7.00747H11.9135ZM6.23122 8.79933L6.21133 8.8474L6.25111 8.75126L6.23122 8.79933ZM11.9132 7.00734L11.9132 7.05937L11.9652 7.05935V7.00734H11.9132ZM17.4248 10.0613L17.4115 10.1116L17.438 10.011L17.4248 10.0613ZM12.2363 9.50831L12.2365 9.45629L12.2365 9.45629L12.2363 9.50831ZM12.0862 9.50801L12.0862 9.45599L12.0342 9.45598V9.50801H12.0862ZM12.0862 9.94417V9.9962H12.1382V9.94417H12.0862ZM12.0859 9.94417H12.0339V9.9962H12.0859V9.94417ZM12.0859 9.50793L12.0859 9.45591L12.0339 9.4559V9.50793H12.0859ZM12.0859 12.6109H12.0339V12.6629H12.0859V12.6109ZM12.0862 12.6109V12.6629H12.1382V12.6109H12.0862ZM12.0859 12.447L12.0859 12.3949L12.0339 12.395V12.447H12.0859ZM17.4043 10.525L17.4198 10.4754L17.3888 10.5747L17.4043 10.525ZM12.0862 12.4471L12.0862 12.395L12.0342 12.395V12.4471H12.0862ZM12.1159 7.15779V6.69315H12.0119V7.15779H12.1159ZM11.9136 7.20985L12.0639 7.20982L12.0639 7.10577L11.9135 7.1058L11.9136 7.20985ZM7.49862 7.57291C8.62197 7.34976 10.1829 7.21019 11.9136 7.20985L11.9135 7.1058C10.1782 7.10614 8.61017 7.24602 7.47835 7.47086L7.49862 7.57291ZM6.1954 7.95523C6.49248 7.81574 6.93527 7.68482 7.49862 7.57291L7.47835 7.47086C6.91163 7.58344 6.45938 7.71634 6.15118 7.86105L6.1954 7.95523ZM5.88335 8.15205C5.94478 8.09243 6.04631 8.02523 6.1954 7.95523L6.15118 7.86105C5.99682 7.93353 5.88387 8.00655 5.81089 8.07738L5.88335 8.15205ZM5.81683 8.25887C5.81683 8.24651 5.82234 8.21126 5.88335 8.15205L5.81089 8.07738C5.73788 8.14823 5.71279 8.2087 5.71279 8.25887H5.81683ZM5.88335 8.36569C5.82234 8.30648 5.81683 8.27122 5.81683 8.25887H5.71279C5.71279 8.30903 5.73788 8.36951 5.81089 8.44035L5.88335 8.36569ZM6.1954 8.5625C6.04631 8.4925 5.94478 8.42531 5.88335 8.36569L5.81089 8.44035C5.88387 8.51118 5.99682 8.58421 6.15118 8.65668L6.1954 8.5625ZM7.49862 8.94483C6.93527 8.83292 6.49248 8.70199 6.1954 8.5625L6.15118 8.65668C6.45938 8.8014 6.91163 8.9343 7.47835 9.04688L7.49862 8.94483ZM11.9136 9.30789C10.1829 9.30755 8.62197 9.16798 7.49862 8.94483L7.47835 9.04688C8.61017 9.27171 10.1782 9.41159 11.9135 9.41194L11.9136 9.30789ZM11.9356 9.30789L11.9136 9.30789L11.9135 9.41194L11.9355 9.41194L11.9356 9.30789ZM11.8835 9.35755V9.35992H11.9876V9.35755H11.8835ZM12.0859 9.30555L11.9356 9.30552L11.9355 9.40957L12.0859 9.4096L12.0859 9.30555ZM17.0622 9.76526C15.7818 9.48047 14.0226 9.30593 12.0859 9.30555L12.0859 9.4096C14.0173 9.40998 15.7686 9.58412 17.0396 9.86682L17.0622 9.76526ZM18.6071 10.2767C18.2313 10.0791 17.7008 9.90729 17.0622 9.76526L17.0396 9.86682C17.6743 10.008 18.1946 10.1774 18.5587 10.3688L18.6071 10.2767ZM19.0682 10.6099C18.9538 10.4856 18.7948 10.3754 18.6071 10.2767L18.5587 10.3688C18.7406 10.4644 18.8883 10.568 18.9917 10.6803L19.0682 10.6099ZM19.2634 11.0594C19.2634 10.8864 19.1836 10.7352 19.0682 10.6099L18.9917 10.6803C19.0955 10.7932 19.1593 10.9204 19.1593 11.0594H19.2634ZM19.0682 11.509C19.1836 11.3836 19.2634 11.2324 19.2634 11.0594H19.1593C19.1593 11.1985 19.0955 11.3257 18.9917 11.4385L19.0682 11.509ZM18.6071 11.8422C18.7948 11.7435 18.9538 11.6333 19.0682 11.509L18.9917 11.4385C18.8883 11.5508 18.7406 11.6544 18.5587 11.7501L18.6071 11.8422ZM17.0622 12.3536C17.7008 12.2116 18.2313 12.0397 18.6071 11.8422L18.5587 11.7501C18.1946 11.9415 17.6743 12.1108 17.0396 12.252L17.0622 12.3536ZM12.0859 12.8133C14.0226 12.8129 15.7818 12.6384 17.0622 12.3536L17.0396 12.252C15.7686 12.5347 14.0173 12.7089 12.0859 12.7092L12.0859 12.8133ZM11.9356 12.8133L12.0859 12.8133L12.0859 12.7092L11.9355 12.7093L11.9356 12.8133ZM11.8835 12.2966V12.7613H11.9876V12.2966H11.8835ZM12.0859 12.2446L11.9355 12.2446L11.9356 12.3487L12.0859 12.3486L12.0859 12.2446ZM16.5008 11.8815C15.3775 12.1047 13.8165 12.2443 12.0859 12.2446L12.0859 12.3486C13.8212 12.3483 15.3893 12.2084 16.5211 11.9836L16.5008 11.8815ZM17.804 11.4992C17.5069 11.6387 17.0642 11.7696 16.5008 11.8815L16.5211 11.9836C17.0878 11.871 17.54 11.7381 17.8482 11.5934L17.804 11.4992ZM18.1161 11.3024C18.0546 11.362 17.9531 11.4292 17.804 11.4992L17.8482 11.5934C18.0026 11.5209 18.1156 11.4479 18.1885 11.3771L18.1161 11.3024ZM18.1826 11.1956C18.1826 11.2079 18.1771 11.2432 18.1161 11.3024L18.1885 11.3771C18.2615 11.3062 18.2866 11.2457 18.2866 11.1956H18.1826ZM18.1161 11.0888C18.1771 11.148 18.1826 11.1832 18.1826 11.1956H18.2866C18.2866 11.1454 18.2615 11.0849 18.1885 11.0141L18.1161 11.0888ZM17.804 10.8919C17.9531 10.9619 18.0546 11.0291 18.1161 11.0888L18.1885 11.0141C18.1156 10.9433 18.0026 10.8702 17.8482 10.7978L17.804 10.8919ZM16.5008 10.5096C17.0642 10.6215 17.5069 10.7524 17.804 10.8919L17.8482 10.7978C17.54 10.653 17.0878 10.5201 16.5211 10.4076L16.5008 10.5096ZM12.0859 10.1466C13.8165 10.1469 15.3775 10.2865 16.5008 10.5096L16.5211 10.4076C15.3893 10.1827 13.8212 10.0428 12.0859 10.0425L12.0859 10.1466ZM12.0639 10.1465L12.0859 10.1466L12.0859 10.0425L12.0639 10.0425L12.0639 10.1465ZM12.1159 10.0969V10.0945H12.0119V10.0969H12.1159ZM11.9135 10.1489L12.0639 10.1489L12.0639 10.0449L11.9135 10.0448L11.9135 10.1489ZM6.93724 9.68918C8.21767 9.97397 9.97686 10.1485 11.9135 10.1489L11.9135 10.0448C9.98213 10.0445 8.23087 9.87032 6.95983 9.58762L6.93724 9.68918ZM5.39232 9.17776C5.76813 9.37533 6.29866 9.54715 6.93724 9.68918L6.95983 9.58762C6.32511 9.44644 5.80478 9.27705 5.44074 9.08566L5.39232 9.17776ZM4.93121 8.84458C5.04561 8.96889 5.20462 9.07908 5.39232 9.17776L5.44074 9.08566C5.25882 8.99002 5.11112 8.88642 5.00777 8.77412L4.93121 8.84458ZM4.73606 8.39502C4.73606 8.56804 4.81584 8.71921 4.93121 8.84458L5.00777 8.77412C4.9039 8.66126 4.84011 8.53407 4.84011 8.39502H4.73606ZM4.93121 7.94546C4.81584 8.07083 4.73606 8.222 4.73606 8.39502H4.84011C4.84011 8.25597 4.9039 8.12878 5.00777 8.01592L4.93121 7.94546ZM5.39232 7.61228C5.20462 7.71096 5.04561 7.82115 4.93121 7.94546L5.00777 8.01592C5.11112 7.90362 5.25882 7.80002 5.44074 7.70438L5.39232 7.61228ZM6.93724 7.10086C6.29866 7.24289 5.76813 7.41471 5.39232 7.61228L5.44074 7.70438C5.80478 7.51299 6.32511 7.3436 6.95983 7.20242L6.93724 7.10086ZM11.9135 6.64115C9.97686 6.64153 8.21767 6.81607 6.93724 7.10086L6.95983 7.20242C8.23087 6.91972 9.98213 6.74558 11.9135 6.7452L11.9135 6.64115ZM12.0639 6.64112L11.9135 6.64115L11.9135 6.7452L12.0639 6.74517L12.0639 6.64112ZM5.74459 9.1758C6.90819 9.65755 9.16395 9.98543 11.7629 9.99815L11.7634 9.89411C9.16807 9.88141 6.92884 9.55349 5.78439 9.07967L5.74459 9.1758ZM11.9132 9.89436C9.2547 9.89384 6.95103 9.56257 5.78439 9.07967L5.7446 9.1758C6.93061 9.66673 9.25102 9.99788 11.9132 9.99841L11.9132 9.89436ZM11.8612 9.51027V9.94638H11.9652V9.51027H11.8612ZM11.9135 9.45825H11.9132V9.56229H11.9135V9.45825ZM11.9655 9.94651V9.51027H11.8615V9.94651H11.9655ZM11.7629 9.99815C11.813 9.9984 11.8632 9.99852 11.9135 9.99853L11.9135 9.89449C11.8634 9.89448 11.8133 9.89435 11.7634 9.89411L11.7629 9.99815ZM11.9135 6.79151L11.9132 6.79151L11.9132 6.89555L11.9135 6.89555L11.9135 6.79151ZM11.9655 7.00747V6.84353H11.8615V7.00747H11.9655ZM5.66648 8.25887C5.66648 8.19159 5.70058 8.1199 5.77863 8.04415C5.85676 7.96834 5.97478 7.89271 6.13149 7.81913C6.44464 7.6721 6.9011 7.53832 7.46932 7.42544C8.60492 7.19985 10.1761 7.05983 11.9135 7.05949L11.9135 6.95545C10.1714 6.95579 8.59312 7.09612 7.44905 7.32339C6.87744 7.43693 6.41153 7.5727 6.08727 7.72495C5.92528 7.80101 5.79584 7.88247 5.70617 7.96948C5.61644 8.05657 5.56243 8.15347 5.56243 8.25887H5.66648ZM6.25111 8.75126C6.05588 8.67047 5.9074 8.58628 5.80859 8.50096C5.70945 8.41536 5.66648 8.33425 5.66648 8.25887H5.56243C5.56243 8.37704 5.63017 8.48437 5.74059 8.57971C5.85132 8.67533 6.01122 8.76459 6.21133 8.8474L6.25111 8.75126ZM5.56213 8.25874C5.56213 8.37695 5.6299 8.4843 5.74037 8.57966C5.85116 8.67529 6.01113 8.76458 6.21133 8.8474L6.25111 8.75126C6.05578 8.67045 5.90722 8.58624 5.80836 8.5009C5.70917 8.41527 5.66617 8.33415 5.66617 8.25874H5.56213ZM11.9132 6.95532C10.1711 6.95566 8.59282 7.09599 7.44875 7.32326C6.87714 7.43681 6.41123 7.57258 6.08697 7.72483C5.92497 7.80089 5.79554 7.88234 5.70587 7.96936C5.61613 8.05645 5.56213 8.15335 5.56213 8.25874H5.66617C5.66617 8.19146 5.70028 8.11977 5.77833 8.04402C5.85645 7.96821 5.97448 7.89259 6.13119 7.81901C6.44434 7.67197 6.90079 7.53819 7.46902 7.42531C8.60462 7.19973 10.1758 7.05971 11.9132 7.05937L11.9132 6.95532ZM11.8612 6.84353V7.00734H11.9652V6.84353H11.8612ZM17.438 10.011C16.183 9.67942 14.321 9.46649 12.2365 9.45629L12.236 9.56034C14.3153 9.57051 16.1678 9.78302 17.4115 10.1116L17.438 10.011ZM12.0862 9.56003C14.226 9.56045 16.1379 9.77516 17.4115 10.1116L17.438 10.011C16.1529 9.67151 14.2314 9.45641 12.0862 9.45599L12.0862 9.56003ZM12.1382 9.94417V9.50801H12.0342V9.94417H12.1382ZM12.0859 9.9962H12.0862V9.89215H12.0859V9.9962ZM12.0339 9.50793V9.94417H12.1379V9.50793H12.0339ZM12.2365 9.45629C12.1864 9.45605 12.1362 9.45592 12.0859 9.45591L12.0859 9.55995C12.1361 9.55996 12.1861 9.56009 12.236 9.56034L12.2365 9.45629ZM12.0859 12.6629H12.0862V12.5589H12.0859V12.6629ZM12.0339 12.447V12.6109H12.1379V12.447H12.0339ZM18.3329 11.1956C18.3329 11.2629 18.2988 11.3345 18.2208 11.4103C18.1427 11.4861 18.0246 11.5617 17.8679 11.6353C17.5548 11.7823 17.0983 11.9161 16.5301 12.029C15.3945 12.2546 13.8233 12.3946 12.0859 12.3949L12.0859 12.499C13.828 12.4987 15.4063 12.3583 16.5504 12.1311C17.122 12.0175 17.5879 11.8817 17.9122 11.7295C18.0741 11.6534 18.2036 11.572 18.2932 11.485C18.383 11.3979 18.437 11.301 18.437 11.1956H18.3329ZM17.3888 10.5747C17.6973 10.671 17.937 10.7751 18.0985 10.8836C18.2622 10.9936 18.3329 11.0992 18.3329 11.1956H18.437C18.437 11.0452 18.3279 10.9125 18.1565 10.7973C17.9829 10.6807 17.7323 10.5729 17.4198 10.4754L17.3888 10.5747ZM18.4373 11.1957C18.4373 11.0453 18.3282 10.9125 18.1567 10.7973C17.9831 10.6807 17.7324 10.5729 17.4198 10.4754L17.3888 10.5747C17.6973 10.671 17.9371 10.7752 18.0987 10.8837C18.2624 10.9937 18.3332 11.0993 18.3332 11.1957H18.4373ZM12.0862 12.4991C13.8283 12.4987 15.4066 12.3584 16.5507 12.1311C17.1223 12.0176 17.5882 11.8818 17.9124 11.7296C18.0744 11.6535 18.2039 11.5721 18.2935 11.485C18.3833 11.3979 18.4373 11.301 18.4373 11.1957H18.3332C18.3332 11.2629 18.2991 11.3346 18.2211 11.4104C18.1429 11.4862 18.0249 11.5618 17.8682 11.6354C17.5551 11.7824 17.0986 11.9162 16.5304 12.0291C15.3948 12.2547 13.8236 12.3947 12.0862 12.395L12.0862 12.4991ZM12.1382 12.6109V12.4471H12.0342V12.6109H12.1382Z" fill="url(#paint2_linear_222_218)" mask="url(#path-2-outside-1_222_218)"/>
<path fill-rule="evenodd" clip-rule="evenodd" d="M13.3245 4.96382V8.52577C13.2083 8.54112 12.7794 8.56792 11.9483 8.56792C11.2246 8.56792 10.6925 8.53845 10.5136 8.52361L10.5136 4.96382H6.58948V2.3587H17.2482V4.96382H13.3245ZM12.1169 9.30136C12.0582 9.30162 11.997 9.30176 11.9335 9.30176C11.2098 9.30176 10.6924 9.28703 10.5136 9.27226L10.5136 15.1937H13.3245L13.3245 9.33217C12.9329 9.31439 12.5294 9.3039 12.1169 9.30136Z" fill="url(#paint3_linear_222_218)"/>
<defs>
<linearGradient id="paint0_linear_222_218" x1="-0.501333" y1="19.8816" x2="24.3286" y2="19.9003" gradientUnits="userSpaceOnUse">
<stop stop-color="#81F7FA"/>
<stop offset="1" stop-color="#7AFF91"/>
</linearGradient>
<linearGradient id="paint1_linear_222_218" x1="4.46757" y1="12.7613" x2="19.4277" y2="12.7834" gradientUnits="userSpaceOnUse">
<stop stop-color="#81F7FA"/>
<stop offset="1" stop-color="#7AFF91"/>
</linearGradient>
<linearGradient id="paint2_linear_222_218" x1="4.46757" y1="12.7613" x2="19.4277" y2="12.7834" gradientUnits="userSpaceOnUse">
<stop stop-color="#81F7FA"/>
<stop offset="1" stop-color="#7AFF91"/>
</linearGradient>
<linearGradient id="paint3_linear_222_218" x1="6.35262" y1="15.1937" x2="17.408" y2="15.1994" gradientUnits="userSpaceOnUse">
<stop stop-color="#81F7FA"/>
<stop offset="1" stop-color="#7AFF91"/>
</linearGradient>
</defs>
</svg>
