<svg width="200" height="80" viewBox="0 0 200 80" fill="none" xmlns="http://www.w3.org/2000/svg">
<g filter="url(#filter0_b_1131_2919)">
<rect width="200" height="80" rx="4" fill="white" fill-opacity="0.1"/>
</g>
<g clip-path="url(#clip0_1131_2919)">
<circle cx="78.1074" cy="40" r="15" fill="url(#paint0_linear_1131_2919)"/>
<mask id="mask0_1131_2919" style="mask-type:luminance" maskUnits="userSpaceOnUse" x="63" y="25" width="31" height="30">
<circle cx="78.1074" cy="40" r="15" fill="white"/>
</mask>
<g mask="url(#mask0_1131_2919)">
<path d="M77.7916 21.4193V31.871" stroke="white" stroke-width="0.804436"/>
<path d="M76.2427 21.4193V31.871" stroke="white" stroke-width="0.804436"/>
<path d="M79.8238 21.4193V31.871" stroke="white" stroke-width="0.804436"/>
<path d="M71.2373 23.4553L74.6261 29.7761V22.5806" stroke="white" stroke-width="0.804436"/>
<path d="M84.7871 23.2617L81.3983 29.5825V22.3871" stroke="white" stroke-width="0.804436"/>
<path d="M78.3266 59.9355V49.4839" stroke="white" stroke-width="0.804436"/>
<path d="M79.8764 59.9355V49.4839" stroke="white" stroke-width="0.804436"/>
<path d="M76.2954 59.9355V49.4839" stroke="white" stroke-width="0.804436"/>
<path d="M84.9805 58.0305L81.5917 51.7097V58.9051" stroke="white" stroke-width="0.804436"/>
<path d="M71.2373 58.1272L74.6261 51.8064V59.0019" stroke="white" stroke-width="0.804436"/>
<path d="M58.8008 40.9459H69.2524" stroke="white" stroke-width="0.804436"/>
<path d="M58.8008 42.4943H69.2524" stroke="white" stroke-width="0.804436"/>
<path d="M58.8008 38.9137H69.2524" stroke="white" stroke-width="0.804436"/>
<path d="M60.5953 47.5501L66.9161 44.1613H59.7207" stroke="white" stroke-width="0.804436"/>
<path d="M61.2721 34.1935L67.5929 37.5824H60.3975" stroke="white" stroke-width="0.804436"/>
<path d="M97.3164 40.4089H86.8648" stroke="white" stroke-width="0.804436"/>
<path d="M97.3164 38.8605H86.8648" stroke="white" stroke-width="0.804436"/>
<path d="M97.3164 42.4412H86.8648" stroke="white" stroke-width="0.804436"/>
<path d="M95.1693 33.8064L88.8485 37.1953H96.0439" stroke="white" stroke-width="0.804436"/>
<path d="M95.557 47.4533L89.2362 44.0645H96.4316" stroke="white" stroke-width="0.804436"/>
<path d="M64.6318 54.4846L72.0222 47.0942" stroke="white" stroke-width="0.804436"/>
<path d="M65.7265 55.5795L73.1169 48.1891" stroke="white" stroke-width="0.804436"/>
<path d="M63.1943 53.0476L70.5847 45.6572" stroke="white" stroke-width="0.804436"/>
<path d="M70.9612 57.8978L73.0345 51.0321L67.9465 56.12" stroke="white" stroke-width="0.804436"/>
<path d="M60.9192 47.9532L67.785 45.8799L62.697 50.9679" stroke="white" stroke-width="0.804436"/>
<path d="M91.4864 26.8699L84.096 34.2603" stroke="white" stroke-width="0.804436"/>
<path d="M90.3907 25.775L83.0003 33.1654" stroke="white" stroke-width="0.804436"/>
<path d="M92.9239 28.3069L85.5335 35.6973" stroke="white" stroke-width="0.804436"/>
<path d="M85.3835 23.6828L83.3103 30.5485L88.3982 25.4606" stroke="white" stroke-width="0.804436"/>
<path d="M95.1345 33.2403L88.2687 35.3136L93.3567 30.2256" stroke="white" stroke-width="0.804436"/>
<path d="M91.8662 54.1049L84.4758 46.7145" stroke="white" stroke-width="0.804436"/>
<path d="M92.9609 53.01L85.5705 45.6196" stroke="white" stroke-width="0.804436"/>
<path d="M90.4297 55.5419L83.0392 48.1515" stroke="white" stroke-width="0.804436"/>
<path d="M95.3278 47.9531L88.4621 45.8799L93.55 50.9679" stroke="white" stroke-width="0.804436"/>
<path d="M85.4802 57.801L83.407 50.9353L88.4949 56.0232" stroke="white" stroke-width="0.804436"/>
<path d="M64.252 27.2496L71.6424 34.64" stroke="white" stroke-width="0.804436"/>
<path d="M63.1573 28.3445L70.5477 35.7349" stroke="white" stroke-width="0.804436"/>
<path d="M65.6875 25.8125L73.0779 33.2029" stroke="white" stroke-width="0.804436"/>
<path d="M61.4036 33.7242L68.2693 35.7974L63.1814 30.7095" stroke="white" stroke-width="0.804436"/>
<path d="M70.8646 23.9731L72.9378 30.8388L67.8498 25.7509" stroke="white" stroke-width="0.804436"/>
</g>
<circle cx="78.0581" cy="40.0484" r="10.3609" fill="#F8BA3A" stroke="white" stroke-width="0.689516"/>
<mask id="mask1_1131_2919" style="mask-type:luminance" maskUnits="userSpaceOnUse" x="67" y="29" width="22" height="22">
<circle cx="78.1548" cy="40.0484" r="10.3609" fill="white" stroke="white" stroke-width="0.689516"/>
</mask>
<g mask="url(#mask1_1131_2919)">
<path fill-rule="evenodd" clip-rule="evenodd" d="M78.639 29.3548L77.2842 40.2419H78.639L78.1068 50.2839L87.9807 48.5161L89.7723 34.7297L85.4207 30.9032L78.639 29.3548Z" fill="white"/>
</g>
<path d="M68.5785 38.6855C68.8116 40.5839 70.0466 42.5591 71.9445 42.3261C78.386 41.5352 77.481 37.3958 77.3942 36.0551C77.8604 39.852 80.7441 41.2456 85.5752 40.6524C87.0131 40.4759 87.6021 37.6657 87.4429 36.3692C87.2439 34.7486 82.9531 34.5117 77.6043 35.1684C72.2555 35.8251 68.2871 36.3124 68.5785 38.6855Z" fill="#01C1AE" stroke="#01C1AE" stroke-width="1.26411" stroke-linecap="round" stroke-linejoin="round"/>
<path d="M78.2152 46.5628C80.4594 46.3797 82.143 44.568 81.9756 42.5161L73.8486 43.1792C74.016 45.231 75.971 46.7459 78.2152 46.5628Z" fill="white" stroke="#FE9D51" stroke-width="0.574597" stroke-linejoin="round"/>
<path d="M79.2676 44.3548H81.4934" stroke="#FE9A54" stroke-width="0.459678" stroke-linecap="round" stroke-linejoin="round"/>
<path d="M80.4776 39.7581C78.7357 39.1 78.0421 37.3548 77.9131 36.5645C77.9131 35.5 79.1228 35.3548 82.0744 35.3548C85.026 35.3548 86.8163 35.5968 86.9615 36.371C87.1066 37.7258 86.6228 39.7581 85.9453 40.0968C85.2679 40.4355 82.655 40.5807 80.4776 39.7581Z" fill="black" stroke="black" stroke-width="0.114919"/>
<path d="M75.3537 40.6656C76.7515 39.7443 77.4774 37.9677 77.0419 36.4677C76.7939 35.6134 75.432 35.8229 72.8806 36.2258C70.6064 36.5849 68.8645 37.5806 69.058 38.4516C69.1547 39.8787 70.2556 41.3858 70.8967 41.6452C71.5379 41.9045 73.6064 41.8172 75.3537 40.6656Z" fill="black" stroke="black" stroke-width="0.114919"/>
<path d="M87.445 31.9677L88.2944 34.2634L90.5901 35.1129L88.2944 35.9624L87.445 38.2581L86.5955 35.9624L84.2998 35.1129L86.5955 34.2634L87.445 31.9677Z" fill="white"/>
</g>
<path d="M102.882 42.7451L105.416 42.4988C105.568 43.3492 105.878 43.9739 106.344 44.3727C106.81 44.7716 107.439 44.971 108.231 44.971C109.07 44.971 109.702 44.7936 110.127 44.4387C110.552 44.0839 110.765 43.6689 110.765 43.1938C110.765 42.8888 110.675 42.6293 110.496 42.4152C110.317 42.2011 110.005 42.0149 109.559 41.8565C109.254 41.751 108.559 41.5633 107.474 41.2935C106.078 40.9474 105.099 40.5222 104.536 40.0178C103.744 39.3081 103.348 38.443 103.348 37.4224C103.348 36.7655 103.534 36.1511 103.907 35.5793C104.279 35.0074 104.816 34.5719 105.517 34.2728C106.218 33.9737 107.064 33.8241 108.055 33.8241C109.674 33.8241 110.892 34.1789 111.71 34.8886C112.529 35.5983 112.958 36.5456 112.999 37.7303L110.395 37.8447C110.284 37.1819 110.045 36.7054 109.678 36.4151C109.312 36.1247 108.762 35.9796 108.029 35.9796C107.272 35.9796 106.68 36.135 106.251 36.4459C105.976 36.6453 105.838 36.9121 105.838 37.2465C105.838 37.5515 105.967 37.8125 106.225 38.0295C106.553 38.3051 107.351 38.5925 108.618 38.8917C109.885 39.1908 110.822 39.5002 111.429 39.8198C112.036 40.1395 112.511 40.5765 112.854 41.1307C113.197 41.685 113.369 42.3698 113.369 43.185C113.369 43.924 113.164 44.6161 112.753 45.2613C112.342 45.9065 111.762 46.386 111.011 46.6998C110.26 47.0136 109.325 47.1705 108.205 47.1705C106.574 47.1705 105.322 46.7936 104.448 46.0399C103.574 45.2862 103.052 44.188 102.882 42.7451Z" fill="white"/>
<path d="M115.541 34.0441H118.145V41.0296C118.145 42.1381 118.177 42.8566 118.242 43.1851C118.353 43.7129 118.619 44.1367 119.038 44.4564C119.458 44.776 120.031 44.9358 120.758 44.9358C121.497 44.9358 122.054 44.7848 122.43 44.4827C122.805 44.1807 123.031 43.8097 123.107 43.3698C123.183 42.9299 123.222 42.1997 123.222 41.1791V34.0441H125.826V40.8184C125.826 42.3669 125.755 43.4607 125.615 44.1C125.474 44.7393 125.214 45.279 124.836 45.7188C124.458 46.1587 123.952 46.5092 123.318 46.7702C122.685 47.0312 121.858 47.1617 120.837 47.1617C119.606 47.1617 118.672 47.0195 118.035 46.735C117.399 46.4505 116.896 46.081 116.526 45.6265C116.157 45.1719 115.913 44.6954 115.796 44.1968C115.626 43.4578 115.541 42.3669 115.541 40.924V34.0441Z" fill="white"/>
<path d="M128.598 46.9417V34.0441H131.131L136.41 42.6572V34.0441H138.83V46.9417H136.217L131.017 38.531V46.9417H128.598Z" fill="white"/>
<defs>
<filter id="filter0_b_1131_2919" x="-50" y="-50" width="300" height="180" filterUnits="userSpaceOnUse" color-interpolation-filters="sRGB">
<feFlood flood-opacity="0" result="BackgroundImageFix"/>
<feGaussianBlur in="BackgroundImageFix" stdDeviation="25"/>
<feComposite in2="SourceAlpha" operator="in" result="effect1_backgroundBlur_1131_2919"/>
<feBlend mode="normal" in="SourceGraphic" in2="effect1_backgroundBlur_1131_2919" result="shape"/>
</filter>
<linearGradient id="paint0_linear_1131_2919" x1="78.1074" y1="25" x2="78.1074" y2="55" gradientUnits="userSpaceOnUse">
<stop stop-color="#F5B745"/>
<stop offset="1" stop-color="#FC8B47"/>
</linearGradient>
<clipPath id="clip0_1131_2919">
<rect width="30" height="30" fill="white" transform="translate(63.1055 25)"/>
</clipPath>
</defs>
</svg>
