<svg width="200" height="80" viewBox="0 0 200 80" fill="none" xmlns="http://www.w3.org/2000/svg">
<g filter="url(#filter0_b_1131_2659)">
<rect width="200" height="80" fill="#071619"/>
</g>
<path d="M93.1747 40.0808C93.1747 48.3651 86.459 55.0808 78.1748 55.0808C69.8905 55.0808 63.1748 48.3651 63.1748 40.0808C63.1748 31.7966 69.8905 25.0808 78.1748 25.0808C86.459 25.0808 93.1747 31.7966 93.1747 40.0808Z" fill="#6A7375"/>
<mask id="mask0_1131_2659" style="mask-type:luminance" maskUnits="userSpaceOnUse" x="63" y="25" width="31" height="31">
<path d="M93.1747 40.0807C93.1747 48.365 86.459 55.0807 78.1748 55.0807C69.8905 55.0807 63.1748 48.365 63.1748 40.0807C63.1748 31.7965 69.8905 25.0808 78.1748 25.0808C86.459 25.0808 93.1747 31.7965 93.1747 40.0807Z" fill="#5D626C"/>
</mask>
<g mask="url(#mask0_1131_2659)">
<path fill-rule="evenodd" clip-rule="evenodd" d="M77.5215 31.9518V21.5002H78.1989V31.9518H77.5215Z" fill="white" fill-opacity="0.35"/>
<path fill-rule="evenodd" clip-rule="evenodd" d="M75.9727 31.9518V21.5002H76.6501V31.9518H75.9727Z" fill="white" fill-opacity="0.35"/>
<path fill-rule="evenodd" clip-rule="evenodd" d="M79.5527 31.9518V21.5002H80.2302V31.9518H79.5527Z" fill="white" fill-opacity="0.35"/>
<path fill-rule="evenodd" clip-rule="evenodd" d="M75.0339 22.6614V29.8568L74.3966 30.0169L71.0078 23.6961L71.6048 23.376L74.3564 28.5083V22.6614H75.0339Z" fill="white" fill-opacity="0.35"/>
<path fill-rule="evenodd" clip-rule="evenodd" d="M81.1289 22.4679V29.6633L81.7662 29.8233L85.1549 23.5026L84.5579 23.1825L81.8063 28.3147V22.4679H81.1289Z" fill="white" fill-opacity="0.35"/>
<path fill-rule="evenodd" clip-rule="evenodd" d="M78.735 49.5646V60.0162H78.0576V49.5646H78.735Z" fill="white" fill-opacity="0.35"/>
<path fill-rule="evenodd" clip-rule="evenodd" d="M80.2839 49.5646V60.0162H79.6064V49.5646H80.2839Z" fill="white" fill-opacity="0.35"/>
<path fill-rule="evenodd" clip-rule="evenodd" d="M76.7028 49.5646V60.0162H76.0254V49.5646H76.7028Z" fill="white" fill-opacity="0.35"/>
<path fill-rule="evenodd" clip-rule="evenodd" d="M81.3223 58.9858V51.7904L81.9595 51.6303L85.3483 57.9511L84.7513 58.2712L81.9997 53.1389V58.9858H81.3223Z" fill="white" fill-opacity="0.35"/>
<path fill-rule="evenodd" clip-rule="evenodd" d="M75.0339 59.0826V51.8872L74.3966 51.7271L71.0078 58.0479L71.6048 58.368L74.3564 53.2357V59.0826H75.0339Z" fill="white" fill-opacity="0.35"/>
<path fill-rule="evenodd" clip-rule="evenodd" d="M69.3217 41.3661H58.8701V40.688H69.3217V41.3661Z" fill="white" fill-opacity="0.35"/>
<path fill-rule="evenodd" clip-rule="evenodd" d="M69.3217 42.9145H58.8701V42.2365H69.3217V42.9145Z" fill="white" fill-opacity="0.35"/>
<path fill-rule="evenodd" clip-rule="evenodd" d="M69.3217 39.3339H58.8701V38.6559H69.3217V39.3339Z" fill="white" fill-opacity="0.35"/>
<path fill-rule="evenodd" clip-rule="evenodd" d="M59.7891 43.9034H66.9845L67.1445 44.5406L60.8237 47.9294L60.5037 47.3324L65.6359 44.5808H59.7891V43.9034Z" fill="white" fill-opacity="0.35"/>
<path fill-rule="evenodd" clip-rule="evenodd" d="M60.4678 38.0019H67.6632L67.8232 37.3647L61.5025 33.9759L61.1824 34.5729L66.3146 37.3245H60.4678V38.0019Z" fill="white" fill-opacity="0.35"/>
<path fill-rule="evenodd" clip-rule="evenodd" d="M86.9346 40.1509H97.3862V40.829H86.9346V40.1509Z" fill="white" fill-opacity="0.35"/>
<path fill-rule="evenodd" clip-rule="evenodd" d="M86.9346 38.6025H97.3862V39.2806H86.9346V38.6025Z" fill="white" fill-opacity="0.35"/>
<path fill-rule="evenodd" clip-rule="evenodd" d="M86.9346 42.1832H97.3862V42.8613H86.9346V42.1832Z" fill="white" fill-opacity="0.35"/>
<path fill-rule="evenodd" clip-rule="evenodd" d="M96.1123 37.6148H88.9169L88.7568 36.9776L95.0776 33.5888L95.3978 34.1858L90.2654 36.9374H96.1123V37.6148Z" fill="white" fill-opacity="0.35"/>
<path fill-rule="evenodd" clip-rule="evenodd" d="M96.502 43.8066H89.3065L89.1465 44.4438L95.4673 47.8326L95.7874 47.2356L90.6551 44.484H96.502V43.8066Z" fill="white" fill-opacity="0.35"/>
<path fill-rule="evenodd" clip-rule="evenodd" d="M72.3303 47.4146L64.9399 54.805L64.4609 54.326L71.8513 46.9356L72.3303 47.4146Z" fill="white" fill-opacity="0.35"/>
<path fill-rule="evenodd" clip-rule="evenodd" d="M73.4251 48.5095L66.0347 55.8999L65.5557 55.4209L72.9461 48.0304L73.4251 48.5095Z" fill="white" fill-opacity="0.35"/>
<path fill-rule="evenodd" clip-rule="evenodd" d="M70.8938 45.9776L63.5034 53.3681L63.0244 52.889L70.4148 45.4986L70.8938 45.9776Z" fill="white" fill-opacity="0.35"/>
<path fill-rule="evenodd" clip-rule="evenodd" d="M67.7764 55.9614L72.8642 50.8735L73.428 51.2109L71.3548 58.0767L70.7063 57.8808L72.3897 52.3061L68.2554 56.4404L67.7764 55.9614Z" fill="white" fill-opacity="0.35"/>
<path fill-rule="evenodd" clip-rule="evenodd" d="M63.0068 51.2882L68.0947 46.2003L67.7573 45.6366L60.8916 47.7098L61.0874 48.3583L66.6621 46.6749L62.5278 50.8093L63.0068 51.2882Z" fill="white" fill-opacity="0.35"/>
<path fill-rule="evenodd" clip-rule="evenodd" d="M83.9258 34.1018L91.3161 26.7114L91.7951 27.1904L84.4048 34.5808L83.9258 34.1018Z" fill="white" fill-opacity="0.35"/>
<path fill-rule="evenodd" clip-rule="evenodd" d="M82.8311 33.0069L90.2215 25.6165L90.7004 26.0955L83.3101 33.4859L82.8311 33.0069Z" fill="white" fill-opacity="0.35"/>
<path fill-rule="evenodd" clip-rule="evenodd" d="M85.3633 35.5388L92.7537 28.1484L93.2326 28.6274L85.8423 36.0178L85.3633 35.5388Z" fill="white" fill-opacity="0.35"/>
<path fill-rule="evenodd" clip-rule="evenodd" d="M88.7063 25.7811L83.6184 30.869L83.0547 30.5316L85.1279 23.6659L85.7764 23.8617L84.093 29.4364L88.2273 25.3021L88.7063 25.7811Z" fill="white" fill-opacity="0.35"/>
<path fill-rule="evenodd" clip-rule="evenodd" d="M93.1855 30.0672L88.0977 35.1551L88.4351 35.7189L95.3007 33.6456L95.105 32.9971L89.5303 34.6805L93.6646 30.5462L93.1855 30.0672Z" fill="white" fill-opacity="0.35"/>
<path fill-rule="evenodd" clip-rule="evenodd" d="M84.7856 46.5559L92.176 53.9464L91.697 54.4253L84.3066 47.035L84.7856 46.5559Z" fill="white" fill-opacity="0.35"/>
<path fill-rule="evenodd" clip-rule="evenodd" d="M85.8794 45.461L93.2698 52.8514L92.7908 53.3305L85.4004 45.94L85.8794 45.461Z" fill="white" fill-opacity="0.35"/>
<path fill-rule="evenodd" clip-rule="evenodd" d="M83.3472 47.9929L90.7376 55.3833L90.2586 55.8624L82.8682 48.4719L83.3472 47.9929Z" fill="white" fill-opacity="0.35"/>
<path fill-rule="evenodd" clip-rule="evenodd" d="M93.3799 51.2883L88.292 46.2003L88.6294 45.6366L95.4951 47.7098L95.2993 48.3583L89.7246 46.6749L93.8589 50.8093L93.3799 51.2883Z" fill="white" fill-opacity="0.35"/>
<path fill-rule="evenodd" clip-rule="evenodd" d="M88.803 55.8646L83.7151 50.7767L83.1514 51.1142L85.2246 57.9799L85.873 57.784L84.1897 52.2094L88.324 56.3437L88.803 55.8646Z" fill="white" fill-opacity="0.35"/>
<path fill-rule="evenodd" clip-rule="evenodd" d="M71.4724 34.9605L64.082 27.5701L64.561 27.0911L71.9514 34.4815L71.4724 34.9605Z" fill="white" fill-opacity="0.35"/>
<path fill-rule="evenodd" clip-rule="evenodd" d="M70.3777 36.0554L62.9873 28.665L63.4663 28.186L70.8567 35.5764L70.3777 36.0554Z" fill="white" fill-opacity="0.35"/>
<path fill-rule="evenodd" clip-rule="evenodd" d="M72.909 33.5234L65.5186 26.133L65.9976 25.654L73.3879 33.0444L72.909 33.5234Z" fill="white" fill-opacity="0.35"/>
<path fill-rule="evenodd" clip-rule="evenodd" d="M63.4902 30.551L68.5781 35.6388L68.2407 36.2026L61.375 34.1294L61.5708 33.4809L67.1455 35.1643L63.0112 31.03L63.4902 30.551Z" fill="white" fill-opacity="0.35"/>
<path fill-rule="evenodd" clip-rule="evenodd" d="M67.6787 26.0714L72.7666 31.1594L73.3304 30.8219L71.2572 23.9562L70.6087 24.1521L72.292 29.7268L68.1577 25.5924L67.6787 26.0714Z" fill="white" fill-opacity="0.35"/>
</g>
<path d="M78.1259 29.5355C72.2736 29.5355 67.5303 34.2789 67.5303 40.1292C67.5303 45.9795 72.2736 50.7229 78.1259 50.7229C83.9781 50.7229 88.7215 45.9795 88.7215 40.1292C88.7215 34.2789 83.9781 29.5355 78.1259 29.5355ZM78.1259 30.11C83.6578 30.11 88.1431 34.5953 88.1431 40.1292C88.1431 45.6631 83.6578 50.1484 78.1259 50.1484C72.594 50.1484 68.1086 45.6631 68.1086 40.1292C68.1086 34.5953 72.594 30.11 78.1259 30.11Z" fill="white" fill-opacity="0.35"/>
<path d="M78.2215 50.4356C83.9135 50.4356 88.5279 45.8213 88.5279 40.1292C88.5279 34.4371 83.9135 29.8228 78.2215 29.8228C72.5294 29.8228 67.915 34.4371 67.915 40.1292C67.915 45.8213 72.5294 50.4356 78.2215 50.4356Z" fill="#6A7375"/>
<mask id="mask1_1131_2659" style="mask-type:luminance" maskUnits="userSpaceOnUse" x="67" y="29" width="22" height="22">
<path d="M78.2205 50.4356C83.9126 50.4356 88.5269 45.8213 88.5269 40.1292C88.5269 34.4371 83.9126 29.8228 78.2205 29.8228C72.5284 29.8228 67.9141 34.4371 67.9141 40.1292C67.9141 45.8213 72.5284 50.4356 78.2205 50.4356Z" fill="#5D626C"/>
</mask>
<g mask="url(#mask1_1131_2659)">
<path fill-rule="evenodd" clip-rule="evenodd" d="M78.7044 29.4357L77.3496 40.3228H78.7044L78.1722 50.3646L88.0461 48.597L89.8377 34.8106L85.4861 30.9841L78.7044 29.4357Z" fill="white" fill-opacity="0.35"/>
</g>
<path fill-rule="evenodd" clip-rule="evenodd" d="M68.6459 38.7663C68.879 40.6648 70.114 42.6399 72.012 42.4069C78.4535 41.6159 77.5484 37.4766 77.4617 36.1359C77.9278 39.9329 80.8115 41.3264 85.6426 40.7333C87.0805 40.5567 87.6695 37.7465 87.5103 36.4501C87.3113 34.8294 83.0204 34.5925 77.6718 35.2492C72.323 35.906 68.3546 36.3932 68.6459 38.7663Z" fill="white" fill-opacity="0.35"/>
<path fill-rule="evenodd" clip-rule="evenodd" d="M78.2826 46.6437C80.5267 46.4606 82.2103 44.6488 82.043 42.597L73.916 43.2601C74.0834 45.3119 76.0384 46.8268 78.2826 46.6437Z" fill="white" fill-opacity="0.35"/>
<path fill-rule="evenodd" clip-rule="evenodd" d="M73.6756 43.2797C73.6648 43.1465 73.764 43.0297 73.8971 43.0189L82.024 42.3558C82.1572 42.3449 82.274 42.4441 82.2848 42.5773C82.4647 44.7822 80.6596 46.6925 78.3031 46.8848C75.9464 47.0771 73.8555 45.4846 73.6756 43.2797ZM74.1867 43.4807C74.4686 45.2588 76.2228 46.569 78.2637 46.4025C80.3045 46.236 81.8232 44.6587 81.8132 42.8585L74.1867 43.4807Z" fill="#6A7375"/>
<path fill-rule="evenodd" clip-rule="evenodd" d="M79.1416 44.4358C79.1416 44.3288 79.2282 44.2421 79.3351 44.2421H81.5609C81.6679 44.2421 81.7545 44.3288 81.7545 44.4358C81.7545 44.5429 81.6679 44.6296 81.5609 44.6296H79.3351C79.2282 44.6296 79.1416 44.5429 79.1416 44.4358Z" fill="#6A7375"/>
<path fill-rule="evenodd" clip-rule="evenodd" d="M80.544 39.8389C78.8021 39.1808 78.1085 37.4357 77.9795 36.6453C77.9795 35.5808 79.1892 35.4357 82.1408 35.4357C85.0924 35.4357 86.8827 35.6776 87.0279 36.4518C87.173 37.8066 86.6891 39.8389 86.0117 40.1776C85.3343 40.5163 82.7214 40.6615 80.544 39.8389Z" fill="#6A7375"/>
<path fill-rule="evenodd" clip-rule="evenodd" d="M75.4207 40.7464C76.8186 39.8252 77.5444 38.0486 77.1089 36.5486C76.8609 35.6943 75.4991 35.9038 72.9476 36.3067C70.6734 36.6658 68.9315 37.6615 69.125 38.5325C69.2218 39.9595 70.3226 41.4667 70.9638 41.726C71.6049 41.9854 73.6734 41.898 75.4207 40.7464Z" fill="#6A7375"/>
<path d="M87.5133 32.0486L88.3628 34.3443L90.6585 35.1938L88.3628 36.0433L87.5133 38.3389L86.6638 36.0433L84.3682 35.1938L86.6638 34.3443L87.5133 32.0486Z" fill="white" fill-opacity="0.35"/>
<path d="M102.882 42.7451L105.416 42.4988C105.568 43.3492 105.878 43.9739 106.344 44.3727C106.81 44.7716 107.439 44.971 108.231 44.971C109.07 44.971 109.702 44.7936 110.127 44.4387C110.552 44.0839 110.765 43.6689 110.765 43.1938C110.765 42.8888 110.675 42.6293 110.496 42.4152C110.317 42.2011 110.005 42.0149 109.559 41.8565C109.254 41.751 108.559 41.5633 107.474 41.2935C106.078 40.9474 105.099 40.5222 104.536 40.0178C103.744 39.3081 103.348 38.443 103.348 37.4224C103.348 36.7655 103.534 36.1511 103.907 35.5793C104.279 35.0074 104.816 34.5719 105.517 34.2728C106.218 33.9737 107.064 33.8241 108.055 33.8241C109.674 33.8241 110.892 34.1789 111.71 34.8886C112.529 35.5983 112.958 36.5456 112.999 37.7303L110.395 37.8447C110.284 37.1819 110.045 36.7054 109.678 36.4151C109.312 36.1247 108.762 35.9796 108.029 35.9796C107.272 35.9796 106.68 36.135 106.251 36.4459C105.976 36.6453 105.838 36.9121 105.838 37.2465C105.838 37.5515 105.967 37.8125 106.225 38.0295C106.553 38.3051 107.351 38.5925 108.618 38.8917C109.885 39.1908 110.822 39.5002 111.429 39.8198C112.036 40.1395 112.511 40.5765 112.854 41.1307C113.197 41.685 113.369 42.3698 113.369 43.185C113.369 43.924 113.164 44.6161 112.753 45.2613C112.342 45.9065 111.762 46.386 111.011 46.6998C110.26 47.0136 109.325 47.1705 108.205 47.1705C106.574 47.1705 105.322 46.7936 104.448 46.0399C103.574 45.2862 103.052 44.188 102.882 42.7451Z" fill="#6A7375"/>
<path d="M115.541 34.0441H118.145V41.0296C118.145 42.1381 118.177 42.8566 118.242 43.185C118.353 43.7129 118.619 44.1367 119.038 44.4563C119.458 44.776 120.031 44.9358 120.758 44.9358C121.497 44.9358 122.054 44.7848 122.43 44.4827C122.805 44.1807 123.031 43.8097 123.107 43.3698C123.183 42.9299 123.222 42.1997 123.222 41.1791V34.0441H125.826V40.8184C125.826 42.3668 125.755 43.4607 125.615 44.1C125.474 44.7393 125.214 45.2789 124.836 45.7188C124.458 46.1587 123.952 46.5092 123.318 46.7702C122.685 47.0312 121.858 47.1617 120.837 47.1617C119.606 47.1617 118.672 47.0194 118.035 46.735C117.399 46.4505 116.896 46.081 116.526 45.6265C116.157 45.1719 115.913 44.6953 115.796 44.1968C115.626 43.4578 115.541 42.3668 115.541 40.924V34.0441Z" fill="#6A7375"/>
<path d="M128.598 46.9417V34.0441H131.131L136.41 42.6572V34.0441H138.83V46.9417H136.217L131.017 38.531V46.9417H128.598Z" fill="#6A7375"/>
<defs>
<filter id="filter0_b_1131_2659" x="-50" y="-50" width="300" height="180" filterUnits="userSpaceOnUse" color-interpolation-filters="sRGB">
<feFlood flood-opacity="0" result="BackgroundImageFix"/>
<feGaussianBlur in="BackgroundImageFix" stdDeviation="25"/>
<feComposite in2="SourceAlpha" operator="in" result="effect1_backgroundBlur_1131_2659"/>
<feBlend mode="normal" in="SourceGraphic" in2="effect1_backgroundBlur_1131_2659" result="shape"/>
</filter>
</defs>
</svg>
