<svg width="200" height="80" viewBox="0 0 200 80" fill="none" xmlns="http://www.w3.org/2000/svg">
<g filter="url(#filter0_b_1131_2900)">
<rect width="200" height="80" rx="4" fill="white" fill-opacity="0.1"/>
</g>
<path fill-rule="evenodd" clip-rule="evenodd" d="M55.4795 29.6108H70.0645C70.4192 29.6108 70.7322 29.7977 70.8991 30.0885L75.1556 37.4402C75.3852 37.814 75.3017 38.3124 74.9887 38.6032L63.304 50.1084C62.9285 50.4822 62.3234 50.4822 61.9478 50.1084L50.284 38.6032C49.971 38.2917 49.9084 37.7933 50.1379 37.3987L54.6866 30.0262C54.8326 29.777 55.1456 29.6108 55.4795 29.6108ZM68.1657 32.8921V34.9481H64.0135V36.3811C66.9346 36.5264 69.1255 37.1702 69.1255 37.9179V39.4962C69.1046 40.2438 66.9138 40.8669 64.0135 41.033V44.5427H61.2592V41.033C58.338 40.8876 56.1472 40.2438 56.1472 39.4962V37.9179C56.168 37.1702 58.3589 36.5472 61.2592 36.3811V34.9481H57.107V32.8921H68.1657ZM62.6363 39.9531C65.7453 39.9531 68.3535 39.4131 68.9795 38.707C68.437 38.1048 66.4965 37.6271 64.0135 37.5025V38.9978C63.5753 39.0185 63.1162 39.0393 62.6363 39.0393C62.1564 39.0393 61.6974 39.0185 61.2592 38.9978V37.5025C58.7762 37.6271 56.8357 38.1048 56.2932 38.707C56.9401 39.4131 59.5274 39.9531 62.6363 39.9531Z" fill="#26D7C1"/>
<path d="M84.5976 32.3597L87.9569 31.9858V35.2463H90.8781V38.0707H87.936V42.4527C87.936 43.4911 88.3742 44.0103 89.2506 44.0103C89.8139 44.0103 90.273 43.9064 90.6486 43.7195L91.4206 46.5439C90.6486 46.8346 89.8348 47.0215 88.9793 47.0631C87.6231 47.1254 86.538 46.7931 85.7452 46.087C84.9731 45.3601 84.5767 44.1349 84.5767 42.4319V38.05H82.5527V35.2256H84.6184V32.3597H84.5976Z" fill="#26D7C1"/>
<path d="M103.502 42.1199H95.0098C95.0933 42.7222 95.4271 43.2206 95.9696 43.6152C96.5121 43.989 97.2424 44.1759 98.1397 44.1759C99.4333 44.1759 100.435 43.8644 101.144 43.2622L103.043 45.3805C101.895 46.5227 100.226 47.1042 98.0771 47.1042C96.0114 47.1042 94.4256 46.5434 93.278 45.422C92.1513 44.3005 91.5879 42.7845 91.5879 40.8947C91.5879 39.1087 92.1513 37.6549 93.2571 36.5542C94.363 35.4328 95.8445 34.8721 97.7224 34.8721C99.7672 34.8721 101.332 35.4951 102.396 36.7619C103.502 38.008 103.878 39.794 103.502 42.1199ZM95.0098 39.6278H100.497C100.477 39.0256 100.184 38.5687 99.6628 38.2572C99.1412 37.9249 98.4944 37.7588 97.7432 37.7588C97.0755 37.7588 96.4913 37.9249 96.0114 38.2572C95.5106 38.5895 95.1768 39.0463 95.0098 39.6278Z" fill="#26D7C1"/>
<path d="M106.318 32.3597L109.677 31.9858V35.2463H112.598V38.0707H109.656V42.4527C109.656 43.4911 110.094 44.0103 110.971 44.0103C111.534 44.0103 111.993 43.9064 112.369 43.7195L113.141 46.5439C112.369 46.8346 111.576 47.0215 110.699 47.0631C109.343 47.1254 108.258 46.7931 107.465 46.087C106.693 45.3601 106.297 44.1349 106.297 42.4319V38.05H104.252V35.2256H106.318V32.3597Z" fill="#26D7C1"/>
<path d="M114.412 30.3032H117.813V36.5958C118.648 35.5159 119.816 34.9759 121.319 34.9759C124.386 34.9759 125.93 36.845 125.93 40.5624V46.8134H122.571V40.5832C122.571 39.7732 122.362 39.1502 121.965 38.7141C121.569 38.278 121.047 38.0495 120.38 38.0495C119.649 38.0495 119.023 38.2987 118.523 38.7972C118.043 39.2956 117.792 40.0017 117.792 40.8947V46.7927H114.433V30.3032H114.412Z" fill="#26D7C1"/>
<path d="M139.139 42.1203H130.647C130.73 42.7226 131.064 43.221 131.606 43.6156C132.149 43.9894 132.879 44.1763 133.776 44.1763C135.07 44.1763 136.072 43.8648 136.781 43.2625L138.68 45.36C137.532 46.5023 135.863 47.0837 133.714 47.0837C131.648 47.0837 130.062 46.523 128.915 45.4016C127.788 44.2801 127.225 42.7641 127.225 40.8742C127.225 39.0882 127.788 37.6345 128.894 36.5338C130 35.4124 131.481 34.8517 133.359 34.8517C135.404 34.8517 136.969 35.4747 138.033 36.7415C139.139 38.0083 139.494 39.7943 139.139 42.1203ZM130.647 39.6282H136.113C136.092 39.0259 135.8 38.569 135.279 38.2575C134.757 37.9253 134.11 37.7591 133.359 37.7591C132.691 37.7591 132.107 37.9253 131.627 38.2575C131.147 38.5898 130.813 39.0467 130.647 39.6282Z" fill="#26D7C1"/>
<path d="M140.537 35.205H143.667L143.917 36.4718C144.648 35.4334 145.67 34.9142 147.005 34.9142C148.09 34.9142 149.05 35.2673 149.843 35.9734L148.445 38.6731C147.903 38.2786 147.277 38.0917 146.588 38.0917C145.816 38.0917 145.19 38.3409 144.668 38.8185C144.147 39.2962 143.896 39.94 143.896 40.7707V46.8348H140.537V35.205Z" fill="#26D7C1"/>
<defs>
<filter id="filter0_b_1131_2900" x="-50" y="-50" width="300" height="180" filterUnits="userSpaceOnUse" color-interpolation-filters="sRGB">
<feFlood flood-opacity="0" result="BackgroundImageFix"/>
<feGaussianBlur in="BackgroundImageFix" stdDeviation="25"/>
<feComposite in2="SourceAlpha" operator="in" result="effect1_backgroundBlur_1131_2900"/>
<feBlend mode="normal" in="SourceGraphic" in2="effect1_backgroundBlur_1131_2900" result="shape"/>
</filter>
</defs>
</svg>
