<svg width="200" height="80" viewBox="0 0 200 80" fill="none" xmlns="http://www.w3.org/2000/svg">
<g opacity="0.4">
<g filter="url(#filter0_b_1131_2512)">
<rect width="200" height="80" fill="#071619"/>
</g>
<path d="M73.9973 31.4854L56 28.186L65.4807 51.8141L78.6573 35.8492L73.9973 31.4854ZM73.6759 32.9223L76.4076 35.5299L68.9088 36.8603L73.6759 32.9223ZM67.3019 36.5942L59.3745 30.0486L72.2833 32.4433L67.3019 36.5942ZM66.7127 37.765L65.4272 48.355L58.4639 30.9533L66.7127 37.765ZM67.8911 38.2971L76.1934 36.8071L66.7127 48.355L67.8911 38.2971Z" fill="white"/>
<path d="M110.296 40.2771C111.091 39.5532 111.422 38.5662 111.422 37.3159C111.422 32.8413 107.382 32.8413 107.382 32.8413H100.295H98.9043V46.9232H100.295V34.2232H107.316C107.514 34.2232 110.031 34.4206 110.031 37.3159C110.031 38.1714 109.833 38.7636 109.303 39.2242C108.376 40.0797 106.918 40.0139 106.852 40.0139H101.289V46.8574H102.68V41.3957H106.786L110.098 46.9232H111.753L108.376 41.2641C108.972 41.1325 109.7 40.8035 110.296 40.2771Z" fill="white"/>
<path d="M89.0334 37.2506H87.6426V46.9236H89.0334V37.2506Z" fill="white"/>
<path d="M95.7249 32.8412H83.207V34.2231H95.7249V32.8412Z" fill="white"/>
<path d="M91.4885 37.2504H90.0977V46.9235H91.4885V37.2504Z" fill="white"/>
<path d="M136.194 41.7217H134.803V46.8543H136.194V41.7217Z" fill="white"/>
<path d="M143.545 32.9695V44.2219L132.285 31.4561V46.854H133.742V35.6017L145.002 48.4333V32.9695H143.545Z" fill="white"/>
<path d="M122.216 32.7085C118.242 32.7085 115.062 35.9329 115.062 39.8152C115.062 43.7634 118.308 46.922 122.216 46.922C126.19 46.922 129.369 43.6976 129.369 39.8152C129.369 35.9329 126.123 32.7085 122.216 32.7085ZM122.216 45.5401C119.036 45.5401 116.453 42.9738 116.453 39.8152C116.453 36.6567 119.036 34.0904 122.216 34.0904C125.395 34.0904 127.978 36.6567 127.978 39.8152C127.978 42.9738 125.395 45.5401 122.216 45.5401Z" fill="white"/>
<path d="M122.216 38.6963C121.686 38.6963 121.223 39.1569 121.223 39.6833C121.223 40.2098 121.686 40.6704 122.216 40.6704C122.746 40.6704 123.21 40.2098 123.21 39.6833C123.21 39.1569 122.746 38.6963 122.216 38.6963Z" fill="white"/>
</g>
<defs>
<filter id="filter0_b_1131_2512" x="-50" y="-50" width="300" height="180" filterUnits="userSpaceOnUse" color-interpolation-filters="sRGB">
<feFlood flood-opacity="0" result="BackgroundImageFix"/>
<feGaussianBlur in="BackgroundImageFix" stdDeviation="25"/>
<feComposite in2="SourceAlpha" operator="in" result="effect1_backgroundBlur_1131_2512"/>
<feBlend mode="normal" in="SourceGraphic" in2="effect1_backgroundBlur_1131_2512" result="shape"/>
</filter>
</defs>
</svg>
