<svg width="200" height="80" viewBox="0 0 200 80" fill="none" xmlns="http://www.w3.org/2000/svg">
<rect width="200" height="80" rx="4" fill="white" fill-opacity="0.1"/>
<path d="M86.5592 45.7979V36.2175H83V34.2353H92.2414V36.2175H88.5885V45.7979H86.5592Z" fill="white"/>
<path d="M92.5693 45.7979V37.0929H94.4582L94.505 40.0331L94.1148 39.6367C94.2501 39.1301 94.479 38.6731 94.8016 38.2657C95.1347 37.8472 95.5145 37.5169 95.9412 37.2746C96.3679 37.0324 96.8102 36.9112 97.2681 36.9112C97.5283 36.9112 97.7832 36.9388 98.033 36.9938C98.2828 37.0489 98.4805 37.1205 98.6262 37.2085L98.111 39.4054C97.9445 39.2953 97.7416 39.2127 97.5022 39.1577C97.2733 39.0916 97.0391 39.0586 96.7998 39.0586C96.4667 39.0586 96.1597 39.1246 95.8788 39.2568C95.5978 39.3779 95.3532 39.5486 95.1451 39.7688C94.9473 39.978 94.7912 40.2203 94.6768 40.4956C94.5623 40.7599 94.505 41.0462 94.505 41.3545V45.7979H92.5693Z" fill="white"/>
<path d="M102.872 45.963C102.226 45.963 101.664 45.8089 101.186 45.5005C100.707 45.1922 100.332 44.7462 100.062 44.1626C99.8015 43.5789 99.6714 42.8797 99.6714 42.0648V37.0929H101.591V41.5693C101.591 42.1309 101.664 42.6044 101.81 42.9898C101.966 43.3642 102.195 43.6505 102.497 43.8487C102.809 44.047 103.189 44.1461 103.636 44.1461C103.959 44.1461 104.256 44.091 104.526 43.9809C104.807 43.8708 105.052 43.7166 105.26 43.5184C105.468 43.3092 105.629 43.0669 105.744 42.7916C105.869 42.5053 105.931 42.1914 105.931 41.8501V37.0929H107.851V45.7979H105.978L105.947 43.9809L106.29 43.7827C106.165 44.1681 105.942 44.526 105.619 44.8563C105.296 45.1867 104.901 45.4565 104.433 45.6657C103.975 45.8639 103.454 45.963 102.872 45.963Z" fill="white"/>
<path d="M114.052 45.963C113.095 45.963 112.247 45.7703 111.508 45.3849C110.769 44.9995 110.191 44.4764 109.775 43.8157C109.369 43.144 109.166 42.3786 109.166 41.5197C109.166 40.815 109.286 40.1818 109.525 39.6202C109.765 39.0586 110.093 38.574 110.509 38.1666C110.936 37.7591 111.435 37.4453 112.007 37.2251C112.58 37.0048 113.199 36.8947 113.865 36.8947C114.469 36.8947 115.031 37.0048 115.551 37.2251C116.082 37.4343 116.54 37.7316 116.925 38.117C117.32 38.4914 117.622 38.9429 117.83 39.4715C118.049 39.9891 118.153 40.5617 118.142 41.1894L118.127 41.9657H110.587L110.228 40.5452H116.519L116.269 40.7929V40.4295C116.227 40.0882 116.092 39.7908 115.863 39.5376C115.634 39.2733 115.343 39.0641 114.989 38.9099C114.646 38.7557 114.271 38.6786 113.865 38.6786C113.293 38.6786 112.793 38.7777 112.366 38.976C111.94 39.1632 111.607 39.455 111.367 39.8514C111.138 40.2478 111.024 40.7544 111.024 41.3711C111.024 41.9327 111.159 42.4227 111.43 42.8412C111.711 43.2486 112.096 43.5679 112.585 43.7992C113.085 44.0304 113.662 44.1461 114.318 44.1461C114.88 44.1461 115.364 44.069 115.77 43.9148C116.175 43.7496 116.55 43.5294 116.894 43.2541L117.799 44.6581C117.497 44.9114 117.143 45.1371 116.737 45.3354C116.332 45.5336 115.9 45.6877 115.442 45.7979C114.984 45.908 114.521 45.963 114.052 45.963Z" fill="white"/>
<path d="M124.469 45.897C123.501 45.897 122.648 45.6822 121.909 45.2528C121.17 44.8233 120.587 44.2342 120.161 43.4853C119.744 42.7255 119.536 41.8721 119.536 40.9251V34.2188H121.581V40.8094C121.581 41.4041 121.711 41.9327 121.972 42.3952C122.232 42.8577 122.58 43.2266 123.017 43.5019C123.455 43.7772 123.938 43.9148 124.469 43.9148C125.042 43.9148 125.552 43.7772 125.999 43.5019C126.447 43.2266 126.8 42.8577 127.061 42.3952C127.321 41.9327 127.451 41.4041 127.451 40.8094V34.2188H129.418V40.9251C129.418 41.8721 129.204 42.7255 128.778 43.4853C128.361 44.2342 127.784 44.8233 127.045 45.2528C126.306 45.6822 125.447 45.897 124.469 45.897Z" fill="white"/>
<path d="M135.412 45.963C134.694 45.963 134.033 45.8804 133.43 45.7153C132.836 45.5391 132.3 45.2858 131.822 44.9554C131.353 44.6251 130.921 44.2231 130.526 43.7496L131.775 42.0978C132.378 42.8356 132.977 43.3532 133.57 43.6505C134.163 43.9478 134.814 44.0965 135.521 44.0965C135.927 44.0965 136.307 44.0415 136.661 43.9313C137.015 43.8212 137.301 43.656 137.519 43.4358C137.738 43.2045 137.847 42.9292 137.847 42.6099C137.847 42.4007 137.795 42.219 137.691 42.0648C137.587 41.8996 137.441 41.762 137.254 41.6519C137.077 41.5307 136.864 41.4261 136.614 41.338C136.375 41.2499 136.12 41.1783 135.849 41.1233C135.579 41.0572 135.298 41.0022 135.006 40.9581C134.382 40.848 133.825 40.6993 133.336 40.5121C132.847 40.3249 132.436 40.0882 132.103 39.8019C131.77 39.5045 131.515 39.1632 131.338 38.7777C131.171 38.3923 131.088 37.9463 131.088 37.4398C131.088 36.9332 131.197 36.4707 131.416 36.0523C131.645 35.6338 131.957 35.276 132.352 34.9786C132.758 34.6813 133.221 34.4501 133.742 34.2849C134.273 34.1197 134.84 34.0371 135.443 34.0371C136.12 34.0371 136.723 34.1142 137.254 34.2684C137.795 34.4225 138.269 34.6483 138.675 34.9456C139.081 35.2429 139.424 35.5953 139.705 36.0027L138.425 37.4563C138.175 37.1149 137.894 36.8341 137.582 36.6139C137.27 36.3827 136.926 36.212 136.552 36.1018C136.187 35.9807 135.808 35.9201 135.412 35.9201C134.975 35.9201 134.59 35.9752 134.257 36.0853C133.934 36.1954 133.674 36.3551 133.476 36.5643C133.289 36.7736 133.195 37.0268 133.195 37.3242C133.195 37.5554 133.253 37.7591 133.367 37.9353C133.492 38.1115 133.664 38.2657 133.882 38.3978C134.111 38.53 134.382 38.6401 134.694 38.7282C135.017 38.8163 135.37 38.8934 135.755 38.9594C136.349 39.0696 136.9 39.2072 137.41 39.3724C137.92 39.5376 138.362 39.7468 138.737 40.0001C139.122 40.2533 139.419 40.5672 139.627 40.9416C139.835 41.305 139.939 41.7455 139.939 42.263C139.939 43.0228 139.747 43.6836 139.361 44.2452C138.987 44.7958 138.461 45.2197 137.785 45.517C137.108 45.8144 136.317 45.963 135.412 45.963Z" fill="white"/>
<path d="M141.479 45.7979V34.2353H146.365C147.239 34.2353 148.019 34.3785 148.706 34.6648C149.403 34.9511 149.997 35.3585 150.486 35.8871C150.985 36.4157 151.36 37.0324 151.61 37.7371C151.87 38.4309 152 39.1907 152 40.0166C152 40.8535 151.87 41.6243 151.61 42.3291C151.36 43.0339 150.991 43.645 150.501 44.1626C150.012 44.6801 149.419 45.0821 148.722 45.3684C148.025 45.6547 147.239 45.7979 146.365 45.7979H141.479ZM143.508 44.1295L143.352 43.8157H146.287C146.88 43.8157 147.4 43.7221 147.848 43.5349C148.306 43.3477 148.685 43.0834 148.987 42.742C149.289 42.4007 149.518 42.0042 149.674 41.5528C149.83 41.0903 149.908 40.5782 149.908 40.0166C149.908 39.466 149.83 38.9594 149.674 38.4969C149.518 38.0344 149.284 37.6325 148.972 37.2911C148.67 36.9498 148.295 36.6855 147.848 36.4983C147.4 36.3111 146.88 36.2175 146.287 36.2175H143.305L143.508 35.9367V44.1295Z" fill="white"/>
<g clip-path="url(#clip0_1_680)">
<path d="M60 53C67.1796 53 73 47.1796 73 40C73 32.8204 67.1796 27 60 27C52.8204 27 47 32.8204 47 40C47 47.1796 52.8204 53 60 53Z" fill="#1A5AFF"/>
<path d="M57.6597 42.798C57.6597 41.589 57.6857 40.367 57.6467 39.158C57.6337 38.599 57.7117 38.053 57.8157 37.533C57.9327 36.961 58.1927 36.428 58.5437 35.921C58.9337 35.336 59.4927 34.998 60.0257 34.608C60.2597 34.439 60.5717 34.348 60.8707 34.309C62.6777 33.997 64.4977 34.257 66.3177 34.166C66.4867 34.153 66.5127 34.231 66.5127 34.374C66.5127 35.661 66.4997 36.948 66.5127 38.235C66.5127 38.443 66.4087 38.456 66.2527 38.456C64.9787 38.456 63.6917 38.456 62.4177 38.443C62.1577 38.443 62.0797 38.495 62.0797 38.768C62.0927 41.537 62.0797 44.306 62.0927 47.088C62.0927 47.361 62.0147 47.426 61.7547 47.413C60.4937 47.4 59.2197 47.4 57.9587 47.413C57.7377 47.413 57.6727 47.361 57.6727 47.127C57.6727 45.697 57.6597 44.241 57.6597 42.798ZM53.3697 36.285V34.439C53.3697 34.257 53.3827 34.166 53.6037 34.179C54.8777 34.192 56.1517 34.192 57.4387 34.179C57.6207 34.179 57.6597 34.231 57.6727 34.413C57.7117 35.154 57.4257 35.778 57.0747 36.402C56.7627 36.961 56.3337 37.39 55.8397 37.741C55.5667 37.936 55.2417 38.079 54.9167 38.209C54.5137 38.378 54.0977 38.482 53.6557 38.469C53.4477 38.469 53.3827 38.417 53.3827 38.196C53.3827 37.559 53.3697 36.922 53.3697 36.285Z" fill="#FEFEFE"/>
</g>
<defs>
<clipPath id="clip0_1_680">
<rect width="26" height="26" fill="white" transform="translate(47 27)"/>
</clipPath>
</defs>
</svg>
