<svg width="24" height="24" viewBox="0 0 24 24" fill="none" xmlns="http://www.w3.org/2000/svg">
<path d="M19.7623 7.29131C19.2057 7.53798 18.6077 7.70465 17.979 7.77998C18.6277 7.39184 19.113 6.78096 19.3443 6.06131C18.7349 6.42331 18.0679 6.67811 17.3723 6.81465C16.9046 6.31522 16.285 5.9842 15.6099 5.87296C14.9347 5.76173 14.2417 5.87651 13.6385 6.19948C13.0353 6.52246 12.5555 7.03555 12.2738 7.65912C11.992 8.28268 11.924 8.98181 12.0803 9.64798C10.8455 9.58598 9.63742 9.26501 8.53462 8.70592C7.43181 8.14682 6.45889 7.36209 5.679 6.40265C5.41233 6.86265 5.259 7.39598 5.259 7.96398C5.2587 8.47531 5.38462 8.97881 5.62559 9.4298C5.86655 9.88079 6.21511 10.2653 6.64033 10.5493C6.14718 10.5336 5.66492 10.4004 5.23367 10.1606V10.2006C5.23362 10.9178 5.48169 11.6129 5.93579 12.168C6.38989 12.7231 7.02205 13.1039 7.725 13.246C7.26752 13.3698 6.78789 13.388 6.32233 13.2993C6.52066 13.9164 6.907 14.456 7.42724 14.8426C7.94749 15.2292 8.57561 15.4434 9.22367 15.4553C8.12356 16.3189 6.76493 16.7874 5.36633 16.7853C5.11859 16.7854 4.87105 16.7709 4.625 16.742C6.04465 17.6548 7.69723 18.1392 9.385 18.1373C15.0983 18.1373 18.2217 13.4053 18.2217 9.30131C18.2217 9.16798 18.2183 9.03331 18.2123 8.89998C18.8199 8.46063 19.3443 7.91658 19.761 7.29331L19.7623 7.29131Z" fill="white"/>
</svg>
