<svg width="18" height="18" viewBox="0 0 18 18" fill="none" xmlns="http://www.w3.org/2000/svg">
<g clip-path="url(#clip0_794_693)">
<path d="M2.27002 11.2179C2.27002 10.0333 2.86286 8.51241 3.92255 6.69338C4.34441 5.97005 4.83375 5.21184 5.37822 4.43001C6.30754 3.10125 7.29896 1.81702 8.34919 0.581593L8.42006 0.499473L8.85428 0L9.28963 0.499473L9.35938 0.582718L9.55399 0.81108C10.5325 1.97706 11.4596 3.18528 12.3326 4.43226C12.8748 5.21296 13.3653 5.97117 13.786 6.69338C14.8457 8.51241 15.4397 10.0344 15.4397 11.2179C15.4397 14.9594 12.4946 17.999 8.85428 17.999C5.21511 17.999 2.27002 14.9594 2.27002 11.2179ZM8.36493 2.38037C7.65395 3.26319 6.97334 4.17004 6.3243 5.09934C5.79558 5.85643 5.3231 6.58764 4.91812 7.28397C3.95518 8.93426 3.42421 10.2966 3.42421 11.2179C3.42421 14.325 5.8597 16.8369 8.85428 16.8369C11.85 16.8369 14.2844 14.325 14.2844 11.2179C14.2844 10.2966 13.7534 8.93426 12.7904 7.28397C12.3516 6.53746 11.8832 5.80868 11.3865 5.09934C10.5881 3.95903 9.74333 2.85192 8.85428 1.78078C8.70129 1.96527 8.53817 2.16551 8.36493 2.38037Z" fill="white"/>
<path d="M13.3799 11.4359C13.3799 12.0248 13.2639 12.6078 13.0386 13.1519C12.8133 13.6959 12.483 14.1902 12.0666 14.6065C11.6503 15.0229 11.1559 15.3532 10.6119 15.5785C10.0679 15.8039 9.48485 15.9198 8.89602 15.9198C8.30718 15.9198 7.72411 15.8039 7.1801 15.5785C6.63609 15.3532 6.14179 15.0229 5.72542 14.6065C5.30905 14.1902 4.97876 13.6959 4.75343 13.1519C4.52809 12.6078 4.41211 12.0248 4.41211 11.4359H5.73478C5.73478 11.8511 5.81655 12.2621 5.97541 12.6457C6.13428 13.0292 6.36714 13.3777 6.66068 13.6713C6.95423 13.9648 7.30272 14.1977 7.68626 14.3565C8.0698 14.5154 8.48088 14.5972 8.89602 14.5972C9.31116 14.5972 9.72223 14.5154 10.1058 14.3565C10.4893 14.1977 10.8378 13.9648 11.1314 13.6713C11.4249 13.3777 11.6578 13.0292 11.8166 12.6457C11.9755 12.2621 12.0573 11.8511 12.0573 11.4359H13.3799Z" fill="url(#paint0_linear_794_693)"/>
</g>
<defs>
<linearGradient id="paint0_linear_794_693" x1="4.21282" y1="15.9198" x2="13.5145" y2="15.9256" gradientUnits="userSpaceOnUse">
<stop stop-color="#81F7FA"/>
<stop offset="1" stop-color="#7AFF91"/>
</linearGradient>
<clipPath id="clip0_794_693">
<rect width="18" height="18" fill="white"/>
</clipPath>
</defs>
</svg>
