<svg width="200" height="80" viewBox="0 0 200 80" fill="none" xmlns="http://www.w3.org/2000/svg">
<g filter="url(#filter0_b_1131_2885)">
<rect width="200" height="80" rx="4" fill="white" fill-opacity="0.1"/>
</g>
<path d="M70.4192 27.4525V27.4526C70.3179 27.4528 70.2185 27.4796 70.1308 27.5305L70.1304 27.53C70.1304 27.53 68.5535 28.4345 67.884 28.8042C67.3353 29.1073 67.2955 29.472 67.2987 29.5953C67.2955 29.7185 67.3353 30.0832 67.884 30.3863C68.5535 30.756 70.1304 31.6605 70.1304 31.6605L70.1308 31.66C70.2185 31.7108 70.3179 31.7377 70.4192 31.7379C70.5722 31.7379 70.719 31.6771 70.8272 31.5689C70.9354 31.4606 70.9962 31.3139 70.9962 31.1609C70.9961 31.0596 70.9693 30.9601 70.9186 30.8725C70.8678 30.7848 70.7949 30.712 70.7072 30.6615L70.7076 30.6606L68.7647 29.5952L70.7077 28.5297L70.7072 28.5288C70.795 28.4783 70.8679 28.4055 70.9186 28.3179C70.9694 28.2302 70.9961 28.1308 70.9962 28.0295C70.9963 27.8765 70.9355 27.7297 70.8273 27.6215C70.7191 27.5133 70.5723 27.4525 70.4193 27.4525L70.4192 27.4525ZM57.2071 27.7613C56.9466 27.7613 56.6886 27.8126 56.4479 27.9123C56.2072 28.012 55.9885 28.1582 55.8043 28.3424C55.62 28.5266 55.4739 28.7453 55.3742 28.986C55.2745 29.2267 55.2232 29.4847 55.2232 29.7452C55.2232 30.0057 55.2745 30.2637 55.3742 30.5044C55.4739 30.7451 55.62 30.9638 55.8042 31.1481C55.9885 31.3323 56.2072 31.4784 56.4479 31.5781C56.6886 31.6778 56.9466 31.7292 57.2071 31.7291C57.4677 31.7291 57.7256 31.6778 57.9663 31.5781C58.207 31.4784 58.4257 31.3323 58.61 31.148C58.7942 30.9638 58.9403 30.7451 59.04 30.5044C59.1397 30.2637 59.191 30.0057 59.191 29.7452C59.191 29.219 58.982 28.7144 58.6099 28.3424C58.2379 27.9704 57.7333 27.7613 57.2071 27.7613ZM77.5942 34.3747C77.3463 34.375 77.1019 34.4333 76.8806 34.5449C76.6592 34.6565 76.467 34.8183 76.3193 35.0173L76.3165 35.0153L73.1652 39.4463L73.1709 39.4481C72.9686 39.7195 72.858 40.0483 72.8554 40.3868C72.858 40.7252 72.9686 41.054 73.1709 41.3253L73.1652 41.3273L76.3165 45.7581L76.3193 45.7562C76.467 45.9552 76.6592 46.117 76.8806 46.2286C77.102 46.3401 77.3463 46.3984 77.5942 46.3988C77.8031 46.3988 78.0099 46.3577 78.2029 46.2777C78.3959 46.1978 78.5712 46.0806 78.7189 45.9329C78.8666 45.7853 78.9838 45.6099 79.0637 45.4169C79.1437 45.224 79.1848 45.0171 79.1848 44.8083C79.1841 44.4805 79.0822 44.1609 78.893 43.8933L78.8948 43.892L76.4 40.3868L78.8948 36.8816L78.893 36.8802C79.0822 36.6126 79.1841 36.293 79.1848 35.9653C79.1848 35.7564 79.1437 35.5496 79.0637 35.3566C78.9838 35.1636 78.8667 34.9883 78.7189 34.8406C78.5712 34.6928 78.3959 34.5757 78.2029 34.4958C78.0099 34.4158 77.8031 34.3747 77.5942 34.3747V34.3747ZM55.1367 48.8096C54.6955 48.8095 54.3379 49.1846 54.3379 49.6473C54.3381 49.9667 54.5114 50.2581 54.7847 50.3988C59.4119 53.3011 63.4789 53.0376 63.4789 53.0376C63.4789 53.0376 67.5458 53.3011 72.173 50.3988C72.4463 50.2581 72.6196 49.9667 72.6198 49.6473C72.6198 49.1846 72.2621 48.8095 71.821 48.8096C71.6526 48.81 71.4885 48.8661 71.3523 48.9701C71.3523 48.9701 71.2826 49.0164 71.2826 49.0164C71.2826 49.0164 67.8125 51.4564 63.4789 51.3818C59.1453 51.4564 55.6751 49.0164 55.6751 49.0164C55.6751 49.0164 55.6054 48.9701 55.6054 48.9701C55.4692 48.8661 55.3051 48.8099 55.1367 48.8096Z" fill="white"/>
<path d="M65.99 34.3059C65.8426 34.307 65.6952 34.3145 65.5484 34.3283C65.4686 34.336 65.3889 34.3457 65.3095 34.3572C65.2177 34.3687 65.1261 34.3826 65.035 34.3989C64.9615 34.4138 64.8882 34.4302 64.8154 34.4482C64.7199 34.4698 64.6251 34.494 64.5311 34.5209C64.4641 34.5417 64.3976 34.5638 64.3316 34.5873C64.2344 34.6196 64.1383 34.6547 64.0433 34.6927C63.9821 34.7187 63.9213 34.7458 63.8612 34.7742C63.7645 34.8173 63.6692 34.8634 63.5754 34.9124C63.5204 34.9426 63.4661 34.9738 63.4123 35.006C63.3168 35.0605 63.223 35.118 63.1312 35.1786C63.0834 35.2116 63.0361 35.2454 62.9894 35.28C62.896 35.3463 62.8048 35.4157 62.716 35.488C62.6752 35.5228 62.635 35.5582 62.5953 35.5942C62.5054 35.6723 62.4184 35.7535 62.3342 35.8377C62.2997 35.8736 62.2657 35.91 62.2323 35.947C62.1486 36.0357 62.0681 36.1275 61.9909 36.222C61.9614 36.2597 61.9324 36.2979 61.904 36.3364C61.828 36.435 61.7557 36.5363 61.6871 36.6402C61.6633 36.6779 61.64 36.7159 61.6172 36.7542C61.5499 36.8622 61.4866 36.9727 61.4274 37.0854C61.4083 37.1237 61.3897 37.1622 61.3716 37.201C61.3144 37.317 61.2617 37.4351 61.2134 37.5551C61.1991 37.5928 61.1852 37.6308 61.1718 37.6689C61.1258 37.7917 61.0845 37.9163 61.048 38.0422C61.0377 38.0807 61.0279 38.1194 61.0184 38.1581C60.9848 38.2854 60.956 38.4139 60.9322 38.5434C60.9259 38.5819 60.9201 38.6206 60.9147 38.6593C60.8937 38.7904 60.8777 38.9223 60.8669 39.0547C60.8599 39.1391 60.855 39.2236 60.8522 39.3081H60.851V39.3416C60.8493 39.3773 60.8481 39.4131 60.8472 39.4488C60.8476 39.4628 60.8481 39.4768 60.8487 39.4908H60.8492H60.8509V44.8678H60.8516C60.8564 45.2754 61.0216 45.6647 61.3115 45.9513C61.6014 46.2379 61.9925 46.3987 62.4002 46.3988C62.8078 46.3986 63.1989 46.2378 63.4887 45.9512C63.7785 45.6646 63.9437 45.2753 63.9485 44.8678H63.9493V44.8497V39.3183C63.9778 38.8743 64.1502 38.4517 64.4403 38.1144C64.7304 37.7771 65.1226 37.5435 65.5573 37.449C65.5624 37.4477 65.5675 37.4464 65.5726 37.4451C65.6237 37.4351 65.6751 37.4269 65.7268 37.4208C65.7435 37.418 65.7603 37.4155 65.7771 37.4132C65.8188 37.4095 65.8605 37.4071 65.9022 37.406C65.9314 37.4039 65.9606 37.4024 65.9899 37.4016C65.9899 37.4016 65.99 37.4016 65.9901 37.4016C66.0235 37.4025 66.0568 37.4041 66.0902 37.4066C66.1275 37.4077 66.1647 37.4098 66.2019 37.413C66.2217 37.4157 66.2415 37.4187 66.2612 37.422C66.3101 37.4279 66.3588 37.4357 66.4072 37.4451C66.4137 37.4468 66.4202 37.4484 66.4267 37.4501C66.4873 37.4631 66.5472 37.4788 66.6064 37.4973C66.9996 37.6219 67.346 37.8625 67.6002 38.1875C67.8543 38.5124 68.0044 38.9066 68.0306 39.3183V44.8497V44.8678H68.0315C68.0363 45.2753 68.2015 45.6646 68.4913 45.9512C68.7811 46.2378 69.1722 46.3986 69.5798 46.3988C69.9874 46.3987 70.3786 46.2379 70.6685 45.9513C70.9583 45.6647 71.1236 45.2754 71.1283 44.8678H71.129V39.4907H71.1307H71.1314C71.132 39.4768 71.1325 39.4628 71.1329 39.4488C71.132 39.413 71.1308 39.3773 71.1292 39.3416V39.3081H71.1279C71.1251 39.2236 71.1202 39.1391 71.1132 39.0548C71.1023 38.9211 71.0862 38.7879 71.0649 38.6555C71.0597 38.6187 71.0542 38.582 71.0483 38.5453C71.0243 38.4147 70.9953 38.2851 70.9613 38.1567C70.952 38.1185 70.9423 38.0804 70.9322 38.0424C70.8957 37.9164 70.8543 37.7918 70.8083 37.6689C70.7949 37.6308 70.7811 37.5929 70.7668 37.5551C70.7182 37.4344 70.6651 37.3156 70.6076 37.199C70.5899 37.1612 70.5717 37.1236 70.5531 37.0862C70.4938 36.9731 70.4303 36.8622 70.3627 36.7538C70.34 36.7156 70.3168 36.6777 70.293 36.6402C70.2244 36.5363 70.1521 36.435 70.0761 36.3364C70.0477 36.2979 70.0187 36.2597 69.9892 36.222C69.912 36.1275 69.8315 36.0357 69.7478 35.9469C69.7144 35.91 69.6804 35.8736 69.6459 35.8377C69.5618 35.7535 69.4747 35.6723 69.3849 35.5942C69.3452 35.5582 69.3049 35.5228 69.2641 35.488C69.1751 35.4155 69.0837 35.3459 68.99 35.2794C68.9437 35.2451 68.8968 35.2116 68.8494 35.1789C68.757 35.118 68.6627 35.0601 68.5666 35.0053C68.5134 34.9735 68.4596 34.9426 68.4053 34.9127C68.3111 34.8635 68.2154 34.8172 68.1183 34.7739C68.0584 34.7457 67.9979 34.7186 67.9369 34.6927C67.8419 34.6547 67.7457 34.6196 67.6486 34.5873C67.5825 34.5638 67.516 34.5417 67.4491 34.5209C67.355 34.494 67.2602 34.4698 67.1648 34.4482C67.0919 34.4302 67.0187 34.4138 66.9451 34.3989C66.854 34.3826 66.7625 34.3687 66.6706 34.3572C66.5912 34.3457 66.5115 34.336 66.4317 34.3282C66.2849 34.3145 66.1376 34.307 65.9901 34.3059C65.9901 34.3059 65.99 34.3059 65.99 34.3059L65.99 34.3059ZM41.5492 34.4086C41.1383 34.4086 40.7443 34.5718 40.4537 34.8623C40.1632 35.1528 40 35.5469 40 35.9577C40.0004 36.0726 40.0137 36.1871 40.0394 36.2991L40.0361 36.2998L42.2332 45.2562L42.2373 45.2552C42.3263 45.5832 42.5207 45.8729 42.7905 46.0796C43.0604 46.2862 43.3907 46.3984 43.7306 46.3988C44.0593 46.3985 44.3794 46.2935 44.6445 46.0992C44.9096 45.9049 45.1061 45.6313 45.2055 45.3179L45.2074 45.3275L46.845 40.6537L48.4827 45.3275L48.4847 45.3179C48.584 45.6313 48.7805 45.9049 49.0456 46.0992C49.3107 46.2935 49.6308 46.3985 49.9595 46.3988C50.2994 46.3984 50.6297 46.2862 50.8996 46.0796C51.1694 45.8729 51.3638 45.5832 51.4528 45.2552L51.4569 45.2562L53.654 36.2998L53.6507 36.2991C53.6765 36.1871 53.6897 36.0726 53.6901 35.9577C53.6901 35.5469 53.5269 35.1528 53.2364 34.8623C52.9458 34.5718 52.5518 34.4086 52.1409 34.4086C51.7729 34.409 51.4171 34.5405 51.1372 34.7794C50.8572 35.0183 50.6715 35.3491 50.6132 35.7125L50.6097 35.7118L49.6997 39.4109L48.3078 35.4348L48.3026 35.4367C48.3016 35.4344 48.3007 35.4321 48.2997 35.4298C48.2852 35.3904 48.2691 35.3516 48.2515 35.3135C48.2476 35.3044 48.2435 35.2953 48.2394 35.2863C48.2212 35.2491 48.2016 35.2126 48.1806 35.1769C48.1755 35.1679 48.1704 35.159 48.1652 35.1501C48.1437 35.1154 48.1209 35.0816 48.0968 35.0487C48.0905 35.0397 48.0841 35.0307 48.0776 35.0219C48.0536 34.9905 48.0284 34.9601 48.002 34.9307C47.9937 34.9211 47.9854 34.9115 47.9769 34.9021C47.9504 34.8741 47.9229 34.847 47.8945 34.821C47.885 34.812 47.8755 34.8032 47.8658 34.7944C47.8374 34.7697 47.808 34.7461 47.7778 34.7235C47.7664 34.7146 47.755 34.7059 47.7434 34.6973C47.714 34.6767 47.6839 34.6571 47.6532 34.6385C47.6395 34.6298 47.6257 34.6214 47.6117 34.6131C47.5817 34.5963 47.551 34.5804 47.5199 34.5656C47.5043 34.5577 47.4886 34.5501 47.4728 34.5428C47.4428 34.5298 47.4125 34.5178 47.3818 34.5067C47.3635 34.4996 47.3451 34.4929 47.3266 34.4865C47.2967 34.477 47.2666 34.4685 47.2362 34.4608C47.2165 34.4554 47.1968 34.4504 47.177 34.4457C47.1474 34.4395 47.1176 34.4341 47.0876 34.4296C47.0661 34.4259 47.0445 34.4226 47.0229 34.4198C46.9948 34.4169 46.9667 34.4147 46.9386 34.4133C46.9076 34.4108 46.8765 34.4092 46.8454 34.4086C46.8451 34.4086 46.8449 34.4086 46.8447 34.4086C46.8129 34.4092 46.7811 34.4108 46.7494 34.4134C46.7224 34.4148 46.6955 34.4169 46.6686 34.4197C46.6453 34.4227 46.622 34.4262 46.5989 34.4302C46.5706 34.4345 46.5424 34.4396 46.5143 34.4454C46.4935 34.4503 46.4728 34.4555 46.4522 34.4612C46.4224 34.4688 46.3928 34.4772 46.3634 34.4865C46.3449 34.4929 46.3266 34.4996 46.3083 34.5067C46.2776 34.5177 46.2472 34.5298 46.2173 34.5428C46.2015 34.5501 46.1858 34.5577 46.1702 34.5656C46.1391 34.5804 46.1085 34.5962 46.0785 34.613C46.0641 34.6215 46.0498 34.6303 46.0357 34.6393C46.0056 34.6575 45.9761 34.6767 45.9473 34.6969C45.9351 34.7058 45.9231 34.715 45.9112 34.7243C45.8814 34.7466 45.8524 34.77 45.8242 34.7944C45.8146 34.8032 45.805 34.812 45.7956 34.821C45.7672 34.847 45.7397 34.874 45.7133 34.902C45.7046 34.9117 45.696 34.9215 45.6875 34.9314C45.6615 34.9604 45.6366 34.9905 45.6128 35.0214C45.606 35.0307 45.5993 35.0401 45.5927 35.0496C45.5688 35.0821 45.5462 35.1156 45.525 35.1499C45.5196 35.1591 45.5143 35.1683 45.5092 35.1775C45.4883 35.2129 45.4689 35.249 45.4509 35.2859C45.4466 35.2953 45.4424 35.3047 45.4382 35.3142C45.4207 35.352 45.4048 35.3906 45.3904 35.4297C45.3894 35.432 45.3885 35.4343 45.3875 35.4366L45.3823 35.4348L43.9904 39.4109L43.0804 35.7118L43.0768 35.7125C43.0185 35.3491 42.8328 35.0183 42.5529 34.7794C42.273 34.5405 41.9171 34.409 41.5491 34.4085L41.5492 34.4086ZM57.2705 34.4087C56.8644 34.4089 56.4745 34.5688 56.185 34.8537C55.8955 35.1386 55.7295 35.5258 55.7227 35.9319H55.7213V35.9578V44.8497V44.9563H55.7251C55.7521 45.3478 55.9267 45.7144 56.2135 45.9821C56.5004 46.2499 56.8781 46.3988 57.2705 46.3988C57.6626 46.3984 58.04 46.2493 58.3265 45.9816C58.613 45.7139 58.7873 45.3475 58.8143 44.9563H58.8197V44.8497V35.9578V35.9319H58.8188C58.812 35.5257 58.6459 35.1384 58.3563 34.8535C58.0667 34.5686 57.6768 34.4088 57.2705 34.4087H57.2705Z" fill="#F2C645"/>
<path d="M96.621 45.8017L93.3003 34.1963H95.9807L97.9017 42.26H97.998L100.117 34.1963H102.412L104.526 42.277H104.628L106.549 34.1963H109.229L105.909 45.8017H103.517L101.307 38.214H101.217L99.0124 45.8017H96.621ZM112.996 34.1963V45.8017H110.543V34.1963H112.996ZM124.722 34.1963V45.8017H122.603L117.554 38.4973H117.469V45.8017H115.015V34.1963H117.169L122.178 41.495H122.28V34.1963H124.722ZM128.892 43.297L128.897 40.4014H129.249L132.037 37.0977H134.808L131.062 41.4724H130.49L128.892 43.297ZM126.704 45.8017V34.1963H129.118V45.8017H126.704ZM132.144 45.8017L129.583 42.0107L131.192 40.305L134.972 45.8017H132.144ZM136.037 45.8017V34.1963H138.491V43.7787H143.466V45.8017H136.037ZM145.046 45.8017V37.0977H147.46V45.8017H145.046ZM146.259 35.9757C145.9 35.9757 145.592 35.8567 145.335 35.6187C145.082 35.3769 144.955 35.0879 144.955 34.7516C144.955 34.4192 145.082 34.134 145.335 33.896C145.592 33.6542 145.9 33.5333 146.259 33.5333C146.617 33.5333 146.923 33.6542 147.177 33.896C147.433 34.134 147.562 34.4192 147.562 34.7516C147.562 35.0879 147.433 35.3769 147.177 35.6187C146.923 35.8567 146.617 35.9757 146.259 35.9757ZM151.808 40.7697V45.8017H149.394V37.0977H151.694V38.6333H151.796C151.989 38.1271 152.312 37.7267 152.765 37.432C153.219 37.1336 153.768 36.9843 154.414 36.9843C155.019 36.9843 155.546 37.1166 155.995 37.381C156.445 37.6454 156.794 38.0232 157.044 38.5143C157.293 39.0017 157.418 39.5835 157.418 40.2597V45.8017H155.004V40.6904C155.007 40.1577 154.871 39.7421 154.596 39.4437C154.32 39.1415 153.94 38.9903 153.457 38.9903C153.132 38.9903 152.845 39.0602 152.595 39.2C152.35 39.3398 152.157 39.5438 152.017 39.812C151.881 40.0765 151.811 40.3957 151.808 40.7697ZM161.508 43.297L161.513 40.4014H161.865L164.653 37.0977H167.424L163.678 41.4724H163.106L161.508 43.297ZM159.32 45.8017V34.1963H161.734V45.8017H159.32ZM164.76 45.8017L162.199 42.0107L163.808 40.305L167.588 45.8017H164.76Z" fill="white"/>
<defs>
<filter id="filter0_b_1131_2910" x="-50" y="-50" width="300" height="180" filterUnits="userSpaceOnUse" color-interpolation-filters="sRGB">
<feFlood flood-opacity="0" result="BackgroundImageFix"/>
<feGaussianBlur in="BackgroundImageFix" stdDeviation="25"/>
<feComposite in2="SourceAlpha" operator="in" result="effect1_backgroundBlur_1131_2910"/>
<feBlend mode="normal" in="SourceGraphic" in2="effect1_backgroundBlur_1131_2910" result="shape"/>
</filter>
</defs>
</svg>
